<svg width="32" height="32" viewBox="0 0 32 32" fill="none" xmlns="http://www.w3.org/2000/svg">
<g clip-path="url(#clip0_103_513)">
<path d="M12.2803 6.26514C12.2803 7.79428 11.6728 9.26079 10.5916 10.342C9.5103 11.4233 8.04379 12.0308 6.51465 12.0308C4.98551 12.0308 3.519 11.4233 2.43774 10.342C1.35647 9.26079 0.749023 7.79428 0.749023 6.26514C0.749023 4.736 1.35647 3.26949 2.43774 2.18822C3.519 1.10696 4.98551 0.499512 6.51465 0.499512C8.04379 0.499512 9.5103 1.10696 10.5916 2.18822C11.6728 3.26949 12.2803 4.736 12.2803 6.26514ZM2.6709 6.26514C2.6709 7.28456 3.07586 8.26224 3.79671 8.98308C4.51755 9.70392 5.49522 10.1089 6.51465 10.1089C7.53407 10.1089 8.51175 9.70392 9.23259 8.98308C9.95343 8.26224 10.3584 7.28456 10.3584 6.26514C10.3584 5.24571 9.95343 4.26804 9.23259 3.54719C8.51175 2.82635 7.53407 2.42139 6.51465 2.42139C5.49522 2.42139 4.51755 2.82635 3.79671 3.54719C3.07586 4.26804 2.6709 5.24571 2.6709 6.26514Z" fill="white"/>
<path d="M18.0459 12.0313H19.0068C19.9391 12.0311 20.8397 12.3699 21.5408 12.9844C22.2419 13.5989 22.6958 14.4472 22.8179 15.3715L28.7949 12.7154C29.0875 12.5851 29.408 12.5299 29.7273 12.5549C30.0466 12.58 30.3546 12.6844 30.6233 12.8587C30.892 13.0331 31.1128 13.2718 31.2658 13.5532C31.4187 13.8346 31.4989 14.1498 31.499 14.4701V28.8111C31.4987 29.1312 31.4185 29.4461 31.2657 29.7273C31.1129 30.0085 30.8922 30.247 30.6238 30.4213C30.3554 30.5956 30.0477 30.7001 29.7287 30.7254C29.4096 30.7506 29.0893 30.6958 28.7969 30.5658L22.8179 27.9098C22.6958 28.834 22.2419 29.6824 21.5408 30.2969C20.8397 30.9114 19.9391 31.2501 19.0068 31.25H4.59277C3.57335 31.25 2.59567 30.845 1.87483 30.1242C1.15399 29.4034 0.749023 28.4257 0.749023 27.4063V15.875C0.749023 14.8556 1.15399 13.8779 1.87483 13.1571C2.59567 12.4362 3.57335 12.0313 4.59277 12.0313H18.0459ZM29.5771 28.8092V14.472L22.8506 17.4605V25.8207L29.5771 28.8092ZM2.6709 15.875V27.4063C2.6709 27.916 2.87338 28.4048 3.2338 28.7652C3.59422 29.1256 4.08306 29.3281 4.59277 29.3281H19.0068C19.5165 29.3281 20.0054 29.1256 20.3658 28.7652C20.7262 28.4048 20.9287 27.916 20.9287 27.4063V15.875C20.9287 15.3653 20.7262 14.8765 20.3658 14.516C20.0054 14.1556 19.5165 13.9531 19.0068 13.9531H4.59277C4.08306 13.9531 3.59422 14.1556 3.2338 14.516C2.87338 14.8765 2.6709 15.3653 2.6709 15.875Z" fill="white"/>
<path d="M18.0449 12.0308C19.5741 12.0308 21.0406 11.4233 22.1218 10.342C23.2031 9.26079 23.8105 7.79428 23.8105 6.26514C23.8105 4.736 23.2031 3.26949 22.1218 2.18822C21.0406 1.10696 19.5741 0.499512 18.0449 0.499512C16.5158 0.499512 15.0493 1.10696 13.968 2.18822C12.8867 3.26949 12.2793 4.736 12.2793 6.26514C12.2793 7.79428 12.8867 9.26079 13.968 10.342C15.0493 11.4233 16.5158 12.0308 18.0449 12.0308ZM14.2012 6.26514C14.2012 5.24571 14.6061 4.26804 15.327 3.54719C16.0478 2.82635 17.0255 2.42139 18.0449 2.42139C19.0643 2.42139 20.042 2.82635 20.7629 3.54719C21.4837 4.26804 21.8887 5.24571 21.8887 6.26514C21.8887 7.28456 21.4837 8.26224 20.7629 8.98308C20.042 9.70392 19.0643 10.1089 18.0449 10.1089C17.0255 10.1089 16.0478 9.70392 15.327 8.98308C14.6061 8.26224 14.2012 7.28456 14.2012 6.26514Z" fill="white"/>
</g>
<defs>
<clipPath id="clip0_103_513">
<rect width="30.75" height="30.75" fill="white" transform="translate(0.75 0.5)"/>
</clipPath>
</defs>
</svg>
