<svg width="30" height="30" viewBox="0 0 30 30" fill="none" xmlns="http://www.w3.org/2000/svg">
<path d="M15.0863 8.52525C13.7887 8.52525 12.5201 8.91005 11.4412 9.63099C10.3622 10.3519 9.52127 11.3766 9.02468 12.5755C8.52809 13.7744 8.39816 15.0936 8.65132 16.3663C8.90448 17.639 9.52936 18.8081 10.4469 19.7257C11.3645 20.6433 12.5336 21.2682 13.8063 21.5213C15.079 21.7745 16.3983 21.6445 17.5971 21.1479C18.796 20.6514 19.8207 19.8104 20.5416 18.7314C21.2626 17.6525 21.6474 16.384 21.6474 15.0863C21.6454 13.3468 20.9535 11.6791 19.7235 10.4491C18.4935 9.21911 16.8258 8.52722 15.0863 8.52525ZM15.0863 20.4545C14.0246 20.4545 12.9867 20.1396 12.1039 19.5498C11.2211 18.9599 10.5331 18.1215 10.1268 17.1406C9.7205 16.1597 9.61419 15.0804 9.82132 14.039C10.0285 12.9977 10.5397 12.0412 11.2905 11.2905C12.0412 10.5397 12.9977 10.0285 14.039 9.82132C15.0804 9.61419 16.1597 9.7205 17.1406 10.1268C18.1215 10.5331 18.9599 11.2211 19.5498 12.1039C20.1396 12.9867 20.4545 14.0246 20.4545 15.0863C20.4545 16.51 19.8889 17.8754 18.8822 18.8822C17.8754 19.8889 16.51 20.4545 15.0863 20.4545ZM22.2438 0.174805H7.92879C5.87303 0.177173 3.90215 0.994868 2.44851 2.44851C0.994868 3.90215 0.177173 5.87303 0.174805 7.92879V22.2438C0.177173 24.2996 0.994868 26.2705 2.44851 27.7241C3.90215 29.1778 5.87303 29.9955 7.92879 29.9978H22.2438C24.2996 29.9955 26.2705 29.1778 27.7241 27.7241C29.1778 26.2705 29.9955 24.2996 29.9978 22.2438V7.92879C29.9955 5.87303 29.1778 3.90215 27.7241 2.44851C26.2705 0.994868 24.2996 0.177173 22.2438 0.174805ZM28.8049 22.2438C28.8029 23.9833 28.111 25.651 26.881 26.881C25.651 28.111 23.9833 28.8029 22.2438 28.8049H7.92879C6.18929 28.8029 4.52161 28.111 3.2916 26.881C2.06159 25.651 1.3697 23.9833 1.36773 22.2438V7.92879C1.3697 6.18929 2.06159 4.52161 3.2916 3.2916C4.52161 2.06159 6.18929 1.3697 7.92879 1.36773H22.2438C23.9833 1.3697 25.651 2.06159 26.881 3.2916C28.111 4.52161 28.8029 6.18929 28.8049 7.92879V22.2438ZM24.0332 7.33233C24.0332 7.56827 23.9633 7.79891 23.8322 7.99508C23.7011 8.19126 23.5148 8.34416 23.2968 8.43445C23.0788 8.52473 22.839 8.54836 22.6076 8.50233C22.3762 8.4563 22.1636 8.34269 21.9968 8.17585C21.8299 8.00902 21.7163 7.79646 21.6703 7.56506C21.6243 7.33365 21.6479 7.0938 21.7382 6.87582C21.8285 6.65784 21.9814 6.47153 22.1776 6.34045C22.3737 6.20937 22.6044 6.13941 22.8403 6.13941C23.1567 6.13941 23.4601 6.26509 23.6838 6.48881C23.9075 6.71252 24.0332 7.01595 24.0332 7.33233Z" fill="#7B5DA5"/>
</svg>
