<svg width="31" height="30" viewBox="0 0 31 30" fill="none" xmlns="http://www.w3.org/2000/svg">
<path d="M1 8L9.3125 15.9412M29 8L21.125 15.9412M9.3125 15.9412L14.1781 20.4972C14.8794 21.1539 15.9759 21.1336 16.6524 20.4514L21.125 15.9412M9.3125 15.9412L1.4375 23M21.125 15.9412L29 23" stroke="#7B5DA5" stroke-width="0.887755"/>
<path d="M22.1664 0H7.85281C5.79726 0.00236769 3.82658 0.819981 2.37308 2.27347C0.91959 3.72697 0.101977 5.69765 0.0996094 7.7532V22.0668C0.101977 24.1223 0.91959 26.093 2.37308 27.5465C3.82658 29 5.79726 29.8176 7.85281 29.82H22.1664C24.222 29.8176 26.1926 29 27.6461 27.5465C29.0996 26.093 29.9172 24.1223 29.9196 22.0668V7.7532C29.9172 5.69765 29.0996 3.72697 27.6461 2.27347C26.1926 0.819981 24.222 0.00236769 22.1664 0ZM28.7268 22.0668C28.7248 23.8061 28.033 25.4736 26.8031 26.7035C25.5732 27.9334 23.9057 28.6252 22.1664 28.6272H7.85281C6.11349 28.6252 4.44597 27.9334 3.21609 26.7035C1.9862 25.4736 1.29438 23.8061 1.29241 22.0668V7.7532C1.29438 6.01388 1.9862 4.34636 3.21609 3.11648C4.44597 1.88659 6.11349 1.19477 7.85281 1.1928H22.1664C23.9057 1.19477 25.5732 1.88659 26.8031 3.11648C28.033 4.34636 28.7248 6.01388 28.7268 7.7532V22.0668Z" fill="#7B5DA5"/>
</svg>
