<svg width="914" height="673" viewBox="0 0 914 673" fill="none" xmlns="http://www.w3.org/2000/svg">
<path d="M494.91 217.383H497.333C497.493 217.383 497.647 217.453 497.76 217.576C497.874 217.7 497.938 217.867 497.938 218.042V261.201C497.938 261.376 497.874 261.543 497.76 261.667C497.647 261.79 497.493 261.86 497.333 261.86H494.91C494.749 261.86 494.595 261.79 494.482 261.667C494.369 261.543 494.305 261.376 494.304 261.201V218.042C494.305 217.867 494.369 217.7 494.482 217.576C494.595 217.453 494.749 217.383 494.91 217.383Z" fill="#6B6870"/>
<path d="M494.606 109.483H497.028C497.148 109.487 497.262 109.54 497.347 109.632C497.431 109.724 497.48 109.848 497.483 109.978V130.734C497.48 130.864 497.431 130.988 497.347 131.08C497.262 131.173 497.148 131.226 497.028 131.229H494.606C494.486 131.226 494.372 131.173 494.288 131.08C494.203 130.988 494.154 130.864 494.151 130.734V109.978C494.154 109.848 494.203 109.724 494.288 109.632C494.372 109.54 494.486 109.487 494.606 109.483V109.483Z" stroke="#7690A2" stroke-width="0.241216"/>
<path d="M494.908 156.269H497.331C497.45 156.272 497.564 156.325 497.649 156.417C497.734 156.509 497.782 156.633 497.785 156.763V199.922C497.782 200.052 497.734 200.176 497.649 200.269C497.564 200.361 497.45 200.414 497.331 200.417H494.908C494.789 200.414 494.675 200.361 494.59 200.269C494.505 200.176 494.456 200.052 494.454 199.922V156.763C494.456 156.633 494.505 156.509 494.59 156.417C494.675 156.325 494.789 156.272 494.908 156.269V156.269Z" stroke="#7690A2" stroke-width="0.241216"/>
<path d="M494.607 109.319H497.03C497.19 109.319 497.344 109.389 497.458 109.512C497.571 109.636 497.635 109.803 497.636 109.978V130.734C497.635 130.908 497.571 131.076 497.458 131.199C497.344 131.323 497.19 131.392 497.03 131.393H494.607C494.447 131.392 494.293 131.323 494.179 131.199C494.066 131.076 494.002 130.909 494.001 130.734V109.978C494.002 109.803 494.066 109.636 494.179 109.512C494.293 109.389 494.447 109.319 494.607 109.319Z" fill="#6B6870"/>
<path d="M494.91 156.103H497.333C497.493 156.103 497.647 156.173 497.76 156.296C497.874 156.419 497.938 156.587 497.938 156.761V199.921C497.938 200.096 497.874 200.263 497.76 200.386C497.647 200.51 497.493 200.579 497.333 200.58H494.91C494.749 200.579 494.596 200.51 494.482 200.386C494.369 200.263 494.305 200.096 494.304 199.921V156.761C494.305 156.587 494.369 156.419 494.482 156.296C494.595 156.173 494.749 156.103 494.91 156.103Z" fill="#6B6870"/>
<path d="M497.332 261.86H494.909C494.748 261.859 494.595 261.79 494.481 261.666C494.368 261.543 494.304 261.375 494.303 261.201V218.041C494.304 217.867 494.368 217.699 494.481 217.576C494.595 217.452 494.748 217.383 494.909 217.382H497.332C497.492 217.383 497.646 217.452 497.759 217.576C497.873 217.699 497.937 217.867 497.937 218.041V261.201C497.937 261.375 497.873 261.543 497.759 261.666C497.646 261.79 497.492 261.859 497.332 261.86ZM494.909 217.712C494.868 217.709 494.828 217.716 494.79 217.732C494.753 217.748 494.718 217.772 494.69 217.803C494.661 217.834 494.639 217.871 494.625 217.912C494.61 217.953 494.604 217.997 494.606 218.041V261.201C494.604 261.245 494.61 261.288 494.625 261.329C494.639 261.37 494.662 261.407 494.69 261.438C494.719 261.469 494.753 261.493 494.791 261.509C494.828 261.525 494.869 261.532 494.909 261.529H497.332C497.372 261.532 497.412 261.525 497.45 261.509C497.488 261.493 497.522 261.469 497.551 261.438C497.58 261.407 497.602 261.37 497.616 261.329C497.631 261.287 497.637 261.243 497.635 261.2V218.041C497.637 217.997 497.631 217.953 497.616 217.912C497.602 217.871 497.58 217.834 497.551 217.803C497.522 217.771 497.488 217.747 497.45 217.732C497.412 217.716 497.372 217.709 497.332 217.712L494.909 217.712Z" fill="#A789D1"/>
<path d="M497.332 200.581H494.909C494.748 200.58 494.595 200.51 494.481 200.387C494.368 200.263 494.304 200.096 494.303 199.922V156.762C494.304 156.587 494.368 156.42 494.481 156.297C494.595 156.173 494.748 156.104 494.909 156.103H497.332C497.492 156.104 497.646 156.173 497.759 156.297C497.873 156.42 497.937 156.587 497.937 156.762V199.922C497.937 200.096 497.873 200.263 497.759 200.387C497.646 200.51 497.492 200.58 497.332 200.581ZM494.909 156.433C494.868 156.43 494.828 156.437 494.79 156.453C494.753 156.468 494.718 156.492 494.69 156.524C494.661 156.555 494.639 156.592 494.625 156.633C494.61 156.674 494.604 156.718 494.606 156.762V199.922C494.604 199.965 494.61 200.009 494.625 200.05C494.639 200.091 494.662 200.128 494.69 200.159C494.719 200.19 494.753 200.214 494.791 200.23C494.828 200.245 494.869 200.252 494.909 200.25H497.332C497.372 200.252 497.412 200.245 497.45 200.23C497.488 200.214 497.522 200.19 497.551 200.159C497.58 200.128 497.602 200.09 497.616 200.049C497.631 200.008 497.637 199.964 497.635 199.92V156.762C497.637 156.718 497.631 156.674 497.616 156.633C497.602 156.592 497.58 156.554 497.551 156.523C497.522 156.492 497.488 156.468 497.45 156.452C497.412 156.437 497.372 156.43 497.332 156.432L494.909 156.433Z" fill="#A789D1"/>
<path d="M497.332 131.392H494.607C494.446 131.392 494.293 131.322 494.179 131.199C494.066 131.076 494.002 130.908 494.001 130.734V109.978C494.001 109.803 494.065 109.636 494.179 109.512C494.292 109.389 494.446 109.319 494.607 109.319H497.332C497.493 109.319 497.647 109.389 497.76 109.512C497.874 109.636 497.937 109.803 497.938 109.978V130.734C497.937 130.908 497.873 131.076 497.76 131.199C497.646 131.322 497.493 131.392 497.332 131.392ZM494.607 109.648C494.566 109.646 494.526 109.653 494.488 109.668C494.45 109.684 494.416 109.708 494.388 109.739C494.359 109.77 494.337 109.808 494.322 109.849C494.308 109.89 494.302 109.934 494.304 109.978V130.734C494.302 130.778 494.308 130.822 494.322 130.863C494.337 130.904 494.359 130.941 494.388 130.972C494.416 131.004 494.45 131.028 494.488 131.043C494.526 131.059 494.566 131.066 494.607 131.063H497.332C497.373 131.066 497.413 131.059 497.451 131.043C497.489 131.028 497.523 131.004 497.552 130.972C497.58 130.941 497.602 130.904 497.617 130.863C497.631 130.822 497.638 130.778 497.635 130.734V109.978C497.638 109.934 497.631 109.89 497.617 109.849C497.602 109.808 497.58 109.77 497.552 109.739C497.523 109.708 497.489 109.684 497.451 109.668C497.413 109.652 497.373 109.646 497.332 109.648L494.607 109.648Z" fill="#A789D1"/>
<path d="M791.301 164.668H795.255C795.799 164.668 796.244 165.257 796.244 165.976V251.657C796.244 252.376 795.799 252.965 795.255 252.965H791.301C790.757 252.965 790.312 252.376 790.312 251.657V165.976C790.312 165.257 790.757 164.668 791.301 164.668Z" fill="#6B6870"/>
<path d="M795.256 252.965H791.301C790.757 252.965 790.312 252.376 790.312 251.656V165.976C790.312 165.257 790.757 164.668 791.301 164.668H795.256C795.799 164.668 796.244 165.257 796.244 165.976V251.656C796.244 252.376 795.799 252.965 795.256 252.965ZM791.301 165.323C791.004 165.323 790.807 165.584 790.807 165.977V251.656C790.807 252.049 791.004 252.31 791.301 252.31H795.256C795.552 252.31 795.75 252.049 795.75 251.656V165.976C795.75 165.584 795.552 165.322 795.256 165.322L791.301 165.323Z" fill="#A789D1"/>
<path d="M540.336 0.266602L749.908 0.266602C774.318 0.266602 794.124 21.8134 794.124 48.3681V623.94C794.124 650.495 774.318 672.041 749.908 672.041H540.336C515.926 672.041 496.12 650.494 496.12 623.94L496.12 48.3681C496.12 21.8134 515.926 0.266602 540.336 0.266602Z" fill="#A789D1"/>
<path d="M540.336 0.431156L749.908 0.431156C755.696 0.428796 761.427 1.66711 766.774 4.07533C772.121 6.48355 776.979 10.0145 781.072 14.4663C785.164 18.9181 788.41 24.2036 790.623 30.0206C792.837 35.8377 793.975 42.0723 793.973 48.3681V623.94C793.975 630.235 792.837 636.47 790.623 642.287C788.41 648.104 785.164 653.389 781.072 657.841C776.979 662.293 772.121 665.824 766.774 668.232C761.427 670.641 755.696 671.879 749.908 671.876H540.336C534.549 671.879 528.818 670.641 523.471 668.232C518.124 665.824 513.265 662.293 509.173 657.841C505.081 653.389 501.835 648.104 499.621 642.287C497.408 636.47 496.269 630.235 496.271 623.94V48.3681C496.269 42.0723 497.408 35.8377 499.621 30.0206C501.835 24.2036 505.081 18.9181 509.173 14.4663C513.265 10.0145 518.124 6.48355 523.471 4.07533C528.818 1.66711 534.549 0.428796 540.336 0.431156V0.431156Z" stroke="#D6D7D6" stroke-width="0.241216"/>
<path d="M540.944 5.20899L749.002 5.20899C754.292 5.20642 759.531 6.33807 764.419 8.53924C769.307 10.7404 773.748 13.968 777.489 18.0374C781.229 22.1069 784.196 26.9384 786.22 32.2558C788.243 37.5733 789.283 43.2725 789.281 49.0275V622.951C789.283 628.706 788.243 634.405 786.22 639.723C784.196 645.04 781.229 649.872 777.489 653.941C773.748 658.011 769.307 661.238 764.419 663.439C759.531 665.64 754.292 666.772 749.002 666.77H540.944C535.654 666.772 530.415 665.64 525.527 663.439C520.639 661.238 516.198 658.011 512.457 653.941C508.716 649.872 505.75 645.04 503.726 639.723C501.703 634.405 500.663 628.706 500.665 622.951L500.665 49.0275C500.663 43.2725 501.703 37.5733 503.726 32.2558C505.75 26.9384 508.716 22.1069 512.457 18.0374C516.198 13.968 520.639 10.7404 525.527 8.53924C530.415 6.33807 535.654 5.20642 540.944 5.20899Z" fill="#6B6870"/>
<path d="M500.941 602.599H496.395V607.024H500.941V602.599Z" fill="#BFBFBF"/>
<path d="M564.11 671.712V666.77H568.351V671.712H564.11Z" fill="#BFBFBF"/>
<path d="M793.823 607.137H789.28V602.525H793.823V607.137Z" fill="#BFBFBF"/>
<path d="M793.808 68.7256H789.262V73.411H793.808V68.7256Z" fill="#BFBFBF"/>
<path d="M500.702 68.7256H496.395V73.411H500.702V68.7256Z" fill="#BFBFBF"/>
<path d="M736.864 0.527344L732.317 0.527344V5.21273H736.864V0.527344Z" fill="#BFBFBF"/>
<path d="M673.695 28.8999C676.602 28.8999 678.959 26.3361 678.959 23.1734C678.959 20.0107 676.602 17.4468 673.695 17.4468C670.788 17.4468 668.431 20.0107 668.431 23.1734C668.431 26.3361 670.788 28.8999 673.695 28.8999Z" fill="#BFBFBF"/>
<path d="M673.816 25.516C675.071 25.516 676.089 24.4089 676.089 23.0432C676.089 21.6774 675.071 20.5703 673.816 20.5703C672.56 20.5703 671.542 21.6774 671.542 23.0432C671.542 24.4089 672.56 25.516 673.816 25.516Z" fill="#BFBFBF"/>
<path d="M673.744 25.9654C673.235 25.9654 672.737 25.8012 672.314 25.4935C671.89 25.1858 671.56 24.7484 671.365 24.2367C671.171 23.7249 671.12 23.1618 671.219 22.6185C671.318 22.0752 671.563 21.5762 671.923 21.1845C672.283 20.7928 672.742 20.5261 673.242 20.4181C673.741 20.31 674.259 20.3655 674.729 20.5775C675.199 20.7895 675.602 21.1485 675.884 21.6091C676.167 22.0697 676.318 22.6112 676.318 23.1651C676.318 23.5329 676.252 23.8972 676.123 24.2371C675.993 24.577 675.804 24.8858 675.565 25.1459C675.326 25.406 675.042 25.6122 674.729 25.7528C674.417 25.8935 674.082 25.9657 673.744 25.9654ZM673.744 20.6941C673.143 20.6988 672.568 20.9606 672.143 21.423C671.718 21.8854 671.477 22.5112 671.473 23.1651C671.477 23.819 671.718 24.4448 672.143 24.9072C672.568 25.3695 673.143 25.6314 673.744 25.6361C674.345 25.6314 674.92 25.3695 675.345 24.9072C675.77 24.4448 676.011 23.819 676.015 23.1651C676.011 22.5112 675.77 21.8854 675.345 21.423C674.92 20.9606 674.345 20.6988 673.744 20.6941Z" fill="#C9C9C9"/>
<path d="M658.288 25.9648H633.152C632.473 25.9576 631.825 25.6595 631.347 25.1351C630.87 24.6106 630.602 23.9024 630.602 23.1643C630.602 22.4263 630.87 21.718 631.347 21.1936C631.825 20.6692 632.473 20.371 633.152 20.3639L658.288 20.3639C658.628 20.3603 658.965 20.4301 659.281 20.5693C659.596 20.7084 659.883 20.9141 660.124 21.1745C660.366 21.4349 660.558 21.7448 660.689 22.0864C660.82 22.4279 660.887 22.7943 660.887 23.1643C660.887 23.5344 660.82 23.9008 660.689 24.2423C660.558 24.5838 660.366 24.8937 660.124 25.1541C659.883 25.4145 659.596 25.6203 659.281 25.7594C658.965 25.8985 658.628 25.9683 658.288 25.9648ZM633.152 21.0227C632.893 21.0227 632.637 21.0781 632.398 21.1857C632.159 21.2933 631.942 21.4511 631.76 21.6499C631.577 21.8488 631.432 22.0849 631.333 22.3447C631.234 22.6045 631.183 22.883 631.183 23.1642C631.183 23.4454 631.234 23.7239 631.333 23.9837C631.432 24.2435 631.577 24.4796 631.76 24.6785C631.942 24.8773 632.159 25.035 632.398 25.1427C632.637 25.2503 632.893 25.3057 633.152 25.3057H658.288C658.546 25.3057 658.802 25.2503 659.041 25.1427C659.28 25.035 659.497 24.8773 659.68 24.6785C659.863 24.4796 660.008 24.2435 660.107 23.9837C660.206 23.7239 660.256 23.4454 660.256 23.1642C660.256 22.883 660.206 22.6045 660.107 22.3447C660.008 22.0849 659.863 21.8488 659.68 21.6499C659.497 21.4511 659.28 21.2933 659.041 21.1857C658.802 21.0781 658.546 21.0227 658.288 21.0227L633.152 21.0227Z" fill="#BFBFBF"/>
<path d="M654.2 23.0005H653.897V23.3299H654.503V23.0005H654.2Z" fill="#BFBFBF"/>
<path d="M655.11 23.0005H654.807V23.3299H655.413V23.0005H655.11Z" fill="#BFBFBF"/>
<path d="M653.291 23.0005H652.988V23.3299H653.593V23.0005H653.291Z" fill="#BFBFBF"/>
<path d="M647.84 24.978H647.537V25.3075H648.143V24.978H647.84Z" fill="#BFBFBF"/>
<path d="M632.699 24.3187V23.9893H632.093V24.3187H632.699Z" fill="#BFBFBF"/>
<path d="M658.136 23.0004H658.439V22.3418H658.136V23.0004Z" fill="#BFBFBF"/>
<path d="M646.023 24.978H645.72V25.3075H646.325V24.978H646.023Z" fill="#BFBFBF"/>
<path d="M642.388 23.0005H642.085V23.3299H642.691V23.0005H642.388Z" fill="#BFBFBF"/>
<path d="M657.229 23.0004H657.531V22.3418H657.229V23.0004Z" fill="#BFBFBF"/>
<path d="M645.115 24.978H644.812V25.3075H645.417V24.978H645.115Z" fill="#BFBFBF"/>
<path d="M641.178 24.3188H640.875V24.9775H641.178V24.3188Z" fill="#BFBFBF"/>
<path d="M632.092 23.3306H631.79V23.9892H632.092V23.3306Z" fill="#BFBFBF"/>
<path d="M646.93 24.978H646.627V25.3075H647.233V24.978H646.93Z" fill="#BFBFBF"/>
<path d="M656.019 23.0005H655.716V23.3299H656.322V23.0005H656.019Z" fill="#BFBFBF"/>
<path d="M656.927 23.0005H656.624V23.3299H657.229V23.0005H656.927Z" fill="#BFBFBF"/>
<path d="M634.817 24.3188H634.515V24.9775H634.817V24.3188Z" fill="#BFBFBF"/>
<path d="M633.909 24.3188H633.606V24.9775H633.909V24.3188Z" fill="#BFBFBF"/>
<path d="M646.023 23.0005H645.72V23.3299H646.325V23.0005H646.023Z" fill="#BFBFBF"/>
<path d="M646.93 23.0005H646.627V23.3299H647.233V23.0005H646.93Z" fill="#BFBFBF"/>
<path d="M651.474 24.978H651.171V25.3075H651.777V24.978H651.474Z" fill="#BFBFBF"/>
<path d="M652.383 24.978H652.08V25.3075H652.685V24.978H652.383Z" fill="#BFBFBF"/>
<path d="M644.206 23.0005H643.903V23.3299H644.509V23.0005H644.206Z" fill="#BFBFBF"/>
<path d="M653.291 24.978H652.988V25.3075H653.593V24.978H653.291Z" fill="#BFBFBF"/>
<path d="M643.298 23.0005H642.996V23.3299H643.601V23.0005H643.298Z" fill="#BFBFBF"/>
<path d="M647.84 23.0005H647.537V23.3299H648.143V23.0005H647.84Z" fill="#BFBFBF"/>
<path d="M645.115 23.0005H644.812V23.3299H645.417V23.0005H645.115Z" fill="#BFBFBF"/>
<path d="M649.659 24.978H649.356V25.3075H649.961V24.978H649.659Z" fill="#BFBFBF"/>
<path d="M650.567 23.0005H650.264V23.3299H650.869V23.0005H650.567Z" fill="#BFBFBF"/>
<path d="M648.749 24.978H648.446V25.3075H649.051V24.978H648.749Z" fill="#BFBFBF"/>
<path d="M651.474 23.0005H651.171V23.3299H651.777V23.0005H651.474Z" fill="#BFBFBF"/>
<path d="M640.269 24.3188H639.966V24.9775H640.269V24.3188Z" fill="#BFBFBF"/>
<path d="M652.383 23.0005H652.08V23.3299H652.685V23.0005H652.383Z" fill="#BFBFBF"/>
<path d="M633 24.3188H632.697V24.9775H633V24.3188Z" fill="#BFBFBF"/>
<path d="M634.515 23.0004H634.817V22.3418H634.515V23.0004Z" fill="#BFBFBF"/>
<path d="M650.567 24.978H650.264V25.3075H650.869V24.978H650.567Z" fill="#BFBFBF"/>
<path d="M649.659 23.0005H649.356V23.3299H649.961V23.0005H649.659Z" fill="#BFBFBF"/>
<path d="M657.834 23.0005H657.531V23.3299H658.136V23.0005H657.834Z" fill="#BFBFBF"/>
<path d="M637.846 24.978H637.543V25.3075H638.148V24.978H637.846Z" fill="#BFBFBF"/>
<path d="M633.606 22.0126H633.909V21.354H633.606V22.0126Z" fill="#BFBFBF"/>
<path d="M641.784 23.0004H642.087V22.3418H641.784V23.0004Z" fill="#BFBFBF"/>
<path d="M636.938 24.978H636.635V25.3075H637.241V24.978H636.938Z" fill="#BFBFBF"/>
<path d="M640.875 23.0004H641.178V22.3418H640.875V23.0004Z" fill="#BFBFBF"/>
<path d="M639.966 23.0004H640.269V22.3418H639.966V23.0004Z" fill="#BFBFBF"/>
<path d="M644.508 23.0004H644.811V22.3418H644.508V23.0004Z" fill="#BFBFBF"/>
<path d="M632.697 22.0126H633V21.354H632.697V22.0126Z" fill="#BFBFBF"/>
<path d="M642.691 23.0004H642.994V22.3418H642.691V23.0004Z" fill="#BFBFBF"/>
<path d="M643.6 23.0004H643.903V22.3418H643.6V23.0004Z" fill="#BFBFBF"/>
<path d="M638.754 24.978H638.452V25.3075H639.057V24.978H638.754Z" fill="#BFBFBF"/>
<path d="M636.331 23.0004H636.634V22.3418H636.331V23.0004Z" fill="#BFBFBF"/>
<path d="M635.121 24.978H634.818V25.3075H635.424V24.978H635.121Z" fill="#BFBFBF"/>
<path d="M643.903 24.3188H643.6V24.9775H643.903V24.3188Z" fill="#BFBFBF"/>
<path d="M645.417 23.0004H645.72V22.3418H645.417V23.0004Z" fill="#BFBFBF"/>
<path d="M634.212 24.978H633.91V25.3075H634.515V24.978H634.212Z" fill="#BFBFBF"/>
<path d="M635.423 23.0004H635.726V22.3418H635.423V23.0004Z" fill="#BFBFBF"/>
<path d="M656.321 23.0004H656.624V22.3418H656.321V23.0004Z" fill="#BFBFBF"/>
<path d="M639.057 23.0004H639.359V22.3418H639.057V23.0004Z" fill="#BFBFBF"/>
<path d="M634.515 22.0126H634.817V21.354H634.515V22.0126Z" fill="#BFBFBF"/>
<path d="M636.029 24.978H635.726V25.3075H636.331V24.978H636.029Z" fill="#BFBFBF"/>
<path d="M638.15 23.0004H638.453V22.3418H638.15V23.0004Z" fill="#BFBFBF"/>
<path d="M637.241 23.0004H637.544V22.3418H637.241V23.0004Z" fill="#BFBFBF"/>
<path d="M643.298 24.978H642.996V25.3075H643.601V24.978H643.298Z" fill="#BFBFBF"/>
<path d="M652.687 23.0004H652.99V22.3418H652.687V23.0004Z" fill="#BFBFBF"/>
<path d="M642.388 24.978H642.085V25.3075H642.691V24.978H642.388Z" fill="#BFBFBF"/>
<path d="M651.775 23.0004H652.078V22.3418H651.775V23.0004Z" fill="#BFBFBF"/>
<path d="M631.79 23.0004H632.092V22.3418H631.79V23.0004Z" fill="#BFBFBF"/>
<path d="M653.596 23.0004H653.899V22.3418H653.596V23.0004Z" fill="#BFBFBF"/>
<path d="M631.788 23.3299V23.0005H631.183V23.3299H631.788Z" fill="#BFBFBF"/>
<path d="M655.412 23.0004H655.715V22.3418H655.412V23.0004Z" fill="#BFBFBF"/>
<path d="M644.206 24.978H643.903V25.3075H644.509V24.978H644.206Z" fill="#BFBFBF"/>
<path d="M654.503 23.0004H654.806V22.3418H654.503V23.0004Z" fill="#BFBFBF"/>
<path d="M642.087 24.3188H641.784V24.9775H642.087V24.3188Z" fill="#BFBFBF"/>
<path d="M646.327 23.0004H646.629V22.3418H646.327V23.0004Z" fill="#BFBFBF"/>
<path d="M640.572 24.978H640.269V25.3075H640.874V24.978H640.572Z" fill="#BFBFBF"/>
<path d="M647.235 23.0004H647.538V22.3418H647.235V23.0004Z" fill="#BFBFBF"/>
<path d="M648.145 23.0004H648.448V22.3418H648.145V23.0004Z" fill="#BFBFBF"/>
<path d="M642.994 24.3188H642.691V24.9775H642.994V24.3188Z" fill="#BFBFBF"/>
<path d="M639.664 24.978H639.361V25.3075H639.967V24.978H639.664Z" fill="#BFBFBF"/>
<path d="M649.052 23.0004H649.355V22.3418H649.052V23.0004Z" fill="#BFBFBF"/>
<path d="M641.482 24.978H641.179V25.3075H641.784V24.978H641.482Z" fill="#BFBFBF"/>
<path d="M632.699 22.3421V22.0127H632.093V22.3421H632.699Z" fill="#BFBFBF"/>
<path d="M649.96 23.0004H650.263V22.3418H649.96V23.0004Z" fill="#BFBFBF"/>
<path d="M650.868 23.0004H651.171V22.3418H650.868V23.0004Z" fill="#BFBFBF"/>
<path d="M648.749 23.0005H648.446V23.3299H649.051V23.0005H648.749Z" fill="#BFBFBF"/>
<path d="M637.241 25.6366V25.966H637.544V25.3071H637.241V25.6366Z" fill="#BFBFBF"/>
<path d="M630.88 24.4836C630.971 24.6558 631.072 24.821 631.183 24.978V24.3188H630.88V24.4836Z" fill="#BFBFBF"/>
<path d="M631.79 25.5381C631.884 25.6061 631.986 25.6615 632.093 25.7031V25.3071H631.79V25.5381Z" fill="#BFBFBF"/>
<path d="M630.578 23.0005V23.3287H630.879V23.0005H630.578Z" fill="#BFBFBF"/>
<path d="M630.699 23.9893C630.726 24.1039 630.766 24.2142 630.819 24.3175H630.88V23.9893H630.699Z" fill="#BFBFBF"/>
<path d="M630.819 22.0127C630.766 22.116 630.726 22.2263 630.699 22.3409H630.88V22.0127H630.819Z" fill="#BFBFBF"/>
<path d="M636.331 25.6366V25.966H636.634V25.3071H636.331V25.6366Z" fill="#BFBFBF"/>
<path d="M635.423 25.6366V25.966H635.726V25.3071H635.423V25.6366Z" fill="#BFBFBF"/>
<path d="M634.515 25.6366V25.966H634.817V25.3071H634.515V25.6366Z" fill="#BFBFBF"/>
<path d="M633.606 25.6366V25.966H633.909V25.3071H633.606V25.6366Z" fill="#BFBFBF"/>
<path d="M632.697 25.6366V25.9317C632.788 25.9317 632.909 25.9647 633 25.9647V25.3071H632.697V25.6366Z" fill="#BFBFBF"/>
<path d="M631.485 24.978H631.183C631.268 25.1037 631.37 25.2147 631.485 25.3075H631.788V24.978H631.485Z" fill="#BFBFBF"/>
<path d="M631.183 21.6834V21.354C631.072 21.511 630.971 21.6762 630.88 21.8484V22.0131H631.183V21.6834Z" fill="#BFBFBF"/>
<path d="M637.544 20.6947V20.3652H637.241V21.0239H637.544V20.6947Z" fill="#BFBFBF"/>
<path d="M636.634 20.6947V20.3652H636.331V21.0239H636.634V20.6947Z" fill="#BFBFBF"/>
<path d="M639.359 20.6947V20.3652H639.057V21.0239H639.359V20.6947Z" fill="#BFBFBF"/>
<path d="M638.453 20.6947V20.3652H638.15V21.0239H638.453V20.6947Z" fill="#BFBFBF"/>
<path d="M635.726 20.6947V20.3652H635.423V21.0239H635.726V20.6947Z" fill="#BFBFBF"/>
<path d="M631.485 21.0244C631.377 21.1258 631.276 21.2359 631.183 21.3539H631.788V21.0244H631.485Z" fill="#BFBFBF"/>
<path d="M632.093 20.6944V20.6284C631.986 20.67 631.884 20.7254 631.79 20.7934V21.0244H632.093V20.6944Z" fill="#BFBFBF"/>
<path d="M633 20.6947V20.3652C632.909 20.3652 632.788 20.3983 632.697 20.3983V21.0228H633V20.6947Z" fill="#BFBFBF"/>
<path d="M634.817 20.6947V20.3652H634.515V21.0239H634.817V20.6947Z" fill="#BFBFBF"/>
<path d="M633.909 20.6947V20.3652H633.606V21.0239H633.909V20.6947Z" fill="#BFBFBF"/>
<path d="M644.508 25.6366V25.966H644.811V25.3071H644.508V25.6366Z" fill="#BFBFBF"/>
<path d="M650.868 25.6366V25.966H651.171V25.3071H650.868V25.6366Z" fill="#BFBFBF"/>
<path d="M651.775 25.6366V25.966H652.078V25.3071H651.775V25.6366Z" fill="#BFBFBF"/>
<path d="M638.15 25.6366V25.966H638.453V25.3071H638.15V25.6366Z" fill="#BFBFBF"/>
<path d="M649.052 25.6366V25.966H649.355V25.3071H649.052V25.6366Z" fill="#BFBFBF"/>
<path d="M649.96 25.6366V25.966H650.263V25.3071H649.96V25.6366Z" fill="#BFBFBF"/>
<path d="M655.412 25.6366V25.966H655.715V25.3071H655.412V25.6366Z" fill="#BFBFBF"/>
<path d="M656.321 25.6366V25.966H656.624V25.3071H656.321V25.6366Z" fill="#BFBFBF"/>
<path d="M657.229 25.6366V25.966H657.531V25.3071H657.229V25.6366Z" fill="#BFBFBF"/>
<path d="M654.503 25.6366V25.966H654.806V25.3071H654.503V25.6366Z" fill="#BFBFBF"/>
<path d="M653.596 25.6366V25.966H653.899V25.3071H653.596V25.6366Z" fill="#BFBFBF"/>
<path d="M648.145 25.6366V25.966H648.448V25.3071H648.145V25.6366Z" fill="#BFBFBF"/>
<path d="M652.687 25.6366V25.966H652.99V25.3071H652.687V25.6366Z" fill="#BFBFBF"/>
<path d="M641.784 25.6366V25.966H642.087V25.3071H641.784V25.6366Z" fill="#BFBFBF"/>
<path d="M640.875 25.6366V25.966H641.178V25.3071H640.875V25.6366Z" fill="#BFBFBF"/>
<path d="M647.235 25.6366V25.966H647.538V25.3071H647.235V25.6366Z" fill="#BFBFBF"/>
<path d="M639.966 25.6366V25.966H640.269V25.3071H639.966V25.6366Z" fill="#BFBFBF"/>
<path d="M642.691 25.6366V25.966H642.994V25.3071H642.691V25.6366Z" fill="#BFBFBF"/>
<path d="M639.057 25.6366V25.966H639.359V25.3071H639.057V25.6366Z" fill="#BFBFBF"/>
<path d="M645.417 25.6366V25.966H645.72V25.3071H645.417V25.6366Z" fill="#BFBFBF"/>
<path d="M646.327 25.6366V25.966H646.629V25.3071H646.327V25.6366Z" fill="#BFBFBF"/>
<path d="M643.6 25.6366V25.966H643.903V25.3071H643.6V25.6366Z" fill="#BFBFBF"/>
<path d="M640.269 20.6947V20.3652H639.966V21.0239H640.269V20.6947Z" fill="#BFBFBF"/>
<path d="M648.448 20.6947V20.3652H648.145V21.0239H648.448V20.6947Z" fill="#BFBFBF"/>
<path d="M657.834 24.978H657.531V25.3075H658.136V24.978H657.834Z" fill="#BFBFBF"/>
<path d="M634.212 23.0005H633.91V23.3299H634.515V23.0005H634.212Z" fill="#BFBFBF"/>
<path d="M660.561 24.3193H660.622C660.652 24.2202 660.713 24.0883 660.743 23.9893H660.258V24.3193H660.561Z" fill="#BFBFBF"/>
<path d="M638.453 24.3188H638.15V24.9775H638.453V24.3188Z" fill="#BFBFBF"/>
<path d="M635.121 23.0005H634.818V23.3299H635.424V23.0005H635.121Z" fill="#BFBFBF"/>
<path d="M659.044 24.6483V24.9777H659.347V24.3188H659.044V24.6483Z" fill="#BFBFBF"/>
<path d="M636.029 23.0005H635.726V23.3299H636.331V23.0005H636.029Z" fill="#BFBFBF"/>
<path d="M659.044 25.6371V25.835C659.15 25.8054 659.252 25.7611 659.348 25.7031V25.3071H659.044V25.6371Z" fill="#BFBFBF"/>
<path d="M658.742 23.3299H659.045V23.0005H658.439V23.3299H658.742Z" fill="#BFBFBF"/>
<path d="M632.396 23.0005H632.093V23.3299H632.699V23.0005H632.396Z" fill="#BFBFBF"/>
<path d="M658.439 25.6366V25.3071H658.136V25.9657H658.439V25.6366Z" fill="#BFBFBF"/>
<path d="M636.634 24.3188H636.331V24.9775H636.634V24.3188Z" fill="#BFBFBF"/>
<path d="M640.572 23.0005H640.269V23.3299H640.874V23.0005H640.572Z" fill="#BFBFBF"/>
<path d="M655.11 24.978H654.807V25.3075H655.413V24.978H655.11Z" fill="#BFBFBF"/>
<path d="M639.359 24.3188H639.057V24.9775H639.359V24.3188Z" fill="#BFBFBF"/>
<path d="M656.927 24.978H656.624V25.3075H657.229V24.978H656.927Z" fill="#BFBFBF"/>
<path d="M641.482 23.0005H641.179V23.3299H641.784V23.0005H641.482Z" fill="#BFBFBF"/>
<path d="M639.664 23.0005H639.361V23.3299H639.967V23.0005H639.664Z" fill="#BFBFBF"/>
<path d="M635.726 24.3188H635.423V24.9775H635.726V24.3188Z" fill="#BFBFBF"/>
<path d="M636.938 23.0005H636.635V23.3299H637.241V23.0005H636.938Z" fill="#BFBFBF"/>
<path d="M637.846 23.0005H637.543V23.3299H638.148V23.0005H637.846Z" fill="#BFBFBF"/>
<path d="M638.754 23.0005H638.452V23.3299H639.057V23.0005H638.754Z" fill="#BFBFBF"/>
<path d="M656.019 24.978H655.716V25.3075H656.322V24.978H656.019Z" fill="#BFBFBF"/>
<path d="M645.72 20.6947V20.3652H645.417V21.0239H645.72V20.6947Z" fill="#BFBFBF"/>
<path d="M654.2 24.978H653.897V25.3075H654.503V24.978H654.2Z" fill="#BFBFBF"/>
<path d="M647.538 20.6947V20.3652H647.235V21.0239H647.538V20.6947Z" fill="#BFBFBF"/>
<path d="M650.263 20.6947V20.3652H649.96V21.0239H650.263V20.6947Z" fill="#BFBFBF"/>
<path d="M651.171 20.6947V20.3652H650.868V21.0239H651.171V20.6947Z" fill="#BFBFBF"/>
<path d="M649.355 20.6947V20.3652H649.052V21.0239H649.355V20.6947Z" fill="#BFBFBF"/>
<path d="M646.629 20.6947V20.3652H646.327V21.0239H646.629V20.6947Z" fill="#BFBFBF"/>
<path d="M642.087 20.6947V20.3652H641.784V21.0239H642.087V20.6947Z" fill="#BFBFBF"/>
<path d="M642.994 20.6947V20.3652H642.691V21.0239H642.994V20.6947Z" fill="#BFBFBF"/>
<path d="M643.903 20.6947V20.3652H643.6V21.0239H643.903V20.6947Z" fill="#BFBFBF"/>
<path d="M641.178 20.6947V20.3652H640.875V21.0239H641.178V20.6947Z" fill="#BFBFBF"/>
<path d="M644.811 20.6947V20.3652H644.508V21.0239H644.811V20.6947Z" fill="#BFBFBF"/>
<path d="M657.531 20.6947V20.3652H657.229V21.0239H657.531V20.6947Z" fill="#BFBFBF"/>
<path d="M658.439 20.6947V20.3652H658.136V21.0239H658.439V20.6947Z" fill="#BFBFBF"/>
<path d="M656.624 20.6947V20.3652H656.321V21.0239H656.624V20.6947Z" fill="#BFBFBF"/>
<path d="M652.078 20.6947V20.3652H651.775V21.0239H652.078V20.6947Z" fill="#BFBFBF"/>
<path d="M660.561 22.3427H660.743C660.716 22.2275 660.675 22.1165 660.622 22.0127H660.258V22.3427H660.561Z" fill="#BFBFBF"/>
<path d="M659.348 20.6949V20.629C659.257 20.5961 659.135 20.5302 659.044 20.4971V21.0249H659.348V20.6949Z" fill="#BFBFBF"/>
<path d="M660.561 23.3299H660.863V23.0005H660.258V23.3299H660.561Z" fill="#BFBFBF"/>
<path d="M653.899 20.6947V20.3652H653.596V21.0239H653.899V20.6947Z" fill="#BFBFBF"/>
<path d="M652.99 20.6947V20.3652H652.687V21.0239H652.99V20.6947Z" fill="#BFBFBF"/>
<path d="M654.806 20.6947V20.3652H654.503V21.0239H654.806V20.6947Z" fill="#BFBFBF"/>
<path d="M655.715 20.6947V20.3652H655.412V21.0239H655.715V20.6947Z" fill="#BFBFBF"/>
<path d="M653.291 23.9893H652.988V24.3187H653.593V23.9893H653.291Z" fill="#BFBFBF"/>
<path d="M652.383 21.3539H652.686V21.0244H652.08V21.3539H652.383Z" fill="#BFBFBF"/>
<path d="M654.2 21.3539H654.503V21.0244H653.897V21.3539H654.2Z" fill="#BFBFBF"/>
<path d="M634.212 23.9893H633.91V24.3187H634.515V23.9893H634.212Z" fill="#BFBFBF"/>
<path d="M636.029 23.9893H635.726V24.3187H636.331V23.9893H636.029Z" fill="#BFBFBF"/>
<path d="M652.078 24.3188H651.775V24.9775H652.078V24.3188Z" fill="#BFBFBF"/>
<path d="M633 23.66V23.3306H632.697V23.9892H633V23.66Z" fill="#BFBFBF"/>
<path d="M655.11 21.3539H655.413V21.0244H654.807V21.3539H655.11Z" fill="#BFBFBF"/>
<path d="M649.96 22.0126H650.263V21.354H649.96V22.0126Z" fill="#BFBFBF"/>
<path d="M633 22.6712V22.3418H632.697V23.0004H633V22.6712Z" fill="#BFBFBF"/>
<path d="M633.304 23.9893H633.001V24.3187H633.606V23.9893H633.304Z" fill="#BFBFBF"/>
<path d="M653.291 21.3539H653.593V21.0244H652.988V21.3539H653.291Z" fill="#BFBFBF"/>
<path d="M635.121 23.9893H634.818V24.3187H635.424V23.9893H635.121Z" fill="#BFBFBF"/>
<path d="M656.927 21.3539H657.23V21.0244H656.624V21.3539H656.927Z" fill="#BFBFBF"/>
<path d="M639.664 23.9893H639.361V24.3187H639.967V23.9893H639.664Z" fill="#BFBFBF"/>
<path d="M636.938 23.9893H636.635V24.3187H637.241V23.9893H636.938Z" fill="#BFBFBF"/>
<path d="M641.482 23.9893H641.179V24.3187H641.784V23.9893H641.482Z" fill="#BFBFBF"/>
<path d="M651.775 22.0126H652.078V21.354H651.775V22.0126Z" fill="#BFBFBF"/>
<path d="M640.572 23.9893H640.269V24.3187H640.874V23.9893H640.572Z" fill="#BFBFBF"/>
<path d="M637.846 23.9893H637.543V24.3187H638.148V23.9893H637.846Z" fill="#BFBFBF"/>
<path d="M650.868 22.0126H651.171V21.354H650.868V22.0126Z" fill="#BFBFBF"/>
<path d="M656.019 21.3539H656.322V21.0244H655.716V21.3539H656.019Z" fill="#BFBFBF"/>
<path d="M638.754 23.9893H638.452V24.3187H639.057V23.9893H638.754Z" fill="#BFBFBF"/>
<path d="M642.388 22.3421H642.691V22.0127H642.085V22.3421H642.388Z" fill="#BFBFBF"/>
<path d="M647.235 22.0126H647.538V21.354H647.235V22.0126Z" fill="#BFBFBF"/>
<path d="M640.572 22.3421H640.875V22.0127H640.269V22.3421H640.572Z" fill="#BFBFBF"/>
<path d="M648.749 21.3539H649.051V21.0244H648.446V21.3539H648.749Z" fill="#BFBFBF"/>
<path d="M638.754 22.3421H639.057V22.0127H638.452V22.3421H638.754Z" fill="#BFBFBF"/>
<path d="M649.659 21.3539H649.962V21.0244H649.356V21.3539H649.659Z" fill="#BFBFBF"/>
<path d="M639.664 22.3421H639.967V22.0127H639.361V22.3421H639.664Z" fill="#BFBFBF"/>
<path d="M650.263 24.3188H649.96V24.9775H650.263V24.3188Z" fill="#BFBFBF"/>
<path d="M633.304 22.3421H633.607V22.0127H633.001V22.3421H633.304Z" fill="#BFBFBF"/>
<path d="M641.482 22.3421H641.784V22.0127H641.179V22.3421H641.482Z" fill="#BFBFBF"/>
<path d="M647.84 21.3539H648.143V21.0244H647.537V21.3539H647.84Z" fill="#BFBFBF"/>
<path d="M657.834 21.3539H658.136V21.0244H657.531V21.3539H657.834Z" fill="#BFBFBF"/>
<path d="M643.298 22.3421H643.601V22.0127H642.996V22.3421H643.298Z" fill="#BFBFBF"/>
<path d="M637.846 22.3421H638.149V22.0127H637.543V22.3421H637.846Z" fill="#BFBFBF"/>
<path d="M651.171 24.3188H650.868V24.9775H651.171V24.3188Z" fill="#BFBFBF"/>
<path d="M651.474 21.3539H651.777V21.0244H651.171V21.3539H651.474Z" fill="#BFBFBF"/>
<path d="M649.052 22.0126H649.355V21.354H649.052V22.0126Z" fill="#BFBFBF"/>
<path d="M634.212 22.3421H634.515V22.0127H633.91V22.3421H634.212Z" fill="#BFBFBF"/>
<path d="M635.121 22.3421H635.424V22.0127H634.818V22.3421H635.121Z" fill="#BFBFBF"/>
<path d="M636.938 22.3421H637.241V22.0127H636.635V22.3421H636.938Z" fill="#BFBFBF"/>
<path d="M636.029 22.3421H636.332V22.0127H635.726V22.3421H636.029Z" fill="#BFBFBF"/>
<path d="M648.145 22.0126H648.448V21.354H648.145V22.0126Z" fill="#BFBFBF"/>
<path d="M650.567 21.3539H650.869V21.0244H650.264V21.3539H650.567Z" fill="#BFBFBF"/>
<path d="M657.229 22.0126H657.531V21.354H657.229V22.0126Z" fill="#BFBFBF"/>
<path d="M658.742 23.9893H658.439V24.3187H659.045V23.9893H658.742Z" fill="#BFBFBF"/>
<path d="M658.742 24.978H658.439V25.3075H659.045V24.978H658.742Z" fill="#BFBFBF"/>
<path d="M654.806 24.3188H654.503V24.9775H654.806V24.3188Z" fill="#BFBFBF"/>
<path d="M657.834 23.9893H657.531V24.3187H658.136V23.9893H657.834Z" fill="#BFBFBF"/>
<path d="M658.439 24.3188H658.136V24.9775H658.439V24.3188Z" fill="#BFBFBF"/>
<path d="M656.927 23.9893H656.624V24.3187H657.229V23.9893H656.927Z" fill="#BFBFBF"/>
<path d="M654.2 23.9893H653.897V24.3187H654.503V23.9893H654.2Z" fill="#BFBFBF"/>
<path d="M659.348 24.978V25.3075H659.954V24.978H659.348Z" fill="#BFBFBF"/>
<path d="M656.019 23.9893H655.716V24.3187H656.322V23.9893H656.019Z" fill="#BFBFBF"/>
<path d="M655.412 22.0126H655.715V21.354H655.412V22.0126Z" fill="#BFBFBF"/>
<path d="M646.93 21.3539H647.233V21.0244H646.627V21.3539H646.93Z" fill="#BFBFBF"/>
<path d="M655.11 23.9893H654.807V24.3187H655.413V23.9893H655.11Z" fill="#BFBFBF"/>
<path d="M656.624 24.3188H656.321V24.9775H656.624V24.3188Z" fill="#BFBFBF"/>
<path d="M656.321 22.0126H656.624V21.354H656.321V22.0126Z" fill="#BFBFBF"/>
<path d="M659.044 22.0126H659.347V21.354H659.044V22.0126Z" fill="#BFBFBF"/>
<path d="M655.715 24.3188H655.412V24.9775H655.715V24.3188Z" fill="#BFBFBF"/>
<path d="M658.136 22.0126H658.439V21.354H658.136V22.0126Z" fill="#BFBFBF"/>
<path d="M637.544 24.3188H637.241V24.9775H637.544V24.3188Z" fill="#BFBFBF"/>
<path d="M657.531 24.3188H657.229V24.9775H657.531V24.3188Z" fill="#BFBFBF"/>
<path d="M659.651 22.3421H659.954V22.0127H659.348V22.3421H659.651Z" fill="#BFBFBF"/>
<path d="M659.348 23.9893V24.3187H659.954V23.9893H659.348Z" fill="#BFBFBF"/>
<path d="M659.348 23.0005V23.3299H659.954V23.0005H659.348Z" fill="#BFBFBF"/>
<path d="M648.749 23.9893H648.446V24.3187H649.051V23.9893H648.749Z" fill="#BFBFBF"/>
<path d="M659.651 21.3539H659.954V21.0244H659.348V21.3539H659.651Z" fill="#BFBFBF"/>
<path d="M646.023 23.9893H645.72V24.3187H646.325V23.9893H646.023Z" fill="#BFBFBF"/>
<path d="M646.93 23.9893H646.627V24.3187H647.233V23.9893H646.93Z" fill="#BFBFBF"/>
<path d="M659.953 22.0126H660.256V21.354H659.953V22.0126Z" fill="#BFBFBF"/>
<path d="M645.115 23.9893H644.812V24.3187H645.417V23.9893H645.115Z" fill="#BFBFBF"/>
<path d="M644.206 23.9893H643.903V24.3187H644.509V23.9893H644.206Z" fill="#BFBFBF"/>
<path d="M643.298 23.9893H642.996V24.3187H643.601V23.9893H643.298Z" fill="#BFBFBF"/>
<path d="M652.99 24.3188H652.687V24.9775H652.99V24.3188Z" fill="#BFBFBF"/>
<path d="M659.953 24.6483V24.9777H660.256V24.3188H659.953V24.6483Z" fill="#BFBFBF"/>
<path d="M647.84 23.9893H647.537V24.3187H648.143V23.9893H647.84Z" fill="#BFBFBF"/>
<path d="M652.687 22.0126H652.99V21.354H652.687V22.0126Z" fill="#BFBFBF"/>
<path d="M658.742 21.3539H659.045V21.0244H658.439V21.3539H658.742Z" fill="#BFBFBF"/>
<path d="M659.953 23.66V23.9894H660.256V23.3306H659.953V23.66Z" fill="#BFBFBF"/>
<path d="M651.474 23.9893H651.171V24.3187H651.777V23.9893H651.474Z" fill="#BFBFBF"/>
<path d="M650.567 23.9893H650.264V24.3187H650.869V23.9893H650.567Z" fill="#BFBFBF"/>
<path d="M652.383 23.9893H652.08V24.3187H652.685V23.9893H652.383Z" fill="#BFBFBF"/>
<path d="M654.503 22.0126H654.806V21.354H654.503V22.0126Z" fill="#BFBFBF"/>
<path d="M653.596 22.0126H653.899V21.354H653.596V22.0126Z" fill="#BFBFBF"/>
<path d="M659.953 22.6712V23.0004H660.256V22.3418H659.953V22.6712Z" fill="#BFBFBF"/>
<path d="M642.388 23.9893H642.085V24.3187H642.691V23.9893H642.388Z" fill="#BFBFBF"/>
<path d="M653.899 24.3188H653.596V24.9775H653.899V24.3188Z" fill="#BFBFBF"/>
<path d="M649.659 23.9893H649.356V24.3187H649.961V23.9893H649.659Z" fill="#BFBFBF"/>
<path d="M642.087 23.3306H641.784V23.9892H642.087V23.3306Z" fill="#BFBFBF"/>
<path d="M646.629 24.3188H646.327V24.9775H646.629V24.3188Z" fill="#BFBFBF"/>
<path d="M645.72 23.3306H645.417V23.9892H645.72V23.3306Z" fill="#BFBFBF"/>
<path d="M639.057 22.0126H639.359V21.354H639.057V22.0126Z" fill="#BFBFBF"/>
<path d="M647.538 23.3306H647.235V23.9892H647.538V23.3306Z" fill="#BFBFBF"/>
<path d="M632.396 21.3539H632.699V21.0244H632.093V21.3539H632.396Z" fill="#BFBFBF"/>
<path d="M646.629 23.3306H646.327V23.9892H646.629V23.3306Z" fill="#BFBFBF"/>
<path d="M642.994 23.3306H642.691V23.9892H642.994V23.3306Z" fill="#BFBFBF"/>
<path d="M638.15 22.0126H638.453V21.354H638.15V22.0126Z" fill="#BFBFBF"/>
<path d="M631.485 22.3421H631.788V22.0127H631.183V22.3421H631.485Z" fill="#BFBFBF"/>
<path d="M644.811 23.3306H644.508V23.9892H644.811V23.3306Z" fill="#BFBFBF"/>
<path d="M643.903 23.3306H643.6V23.9892H643.903V23.3306Z" fill="#BFBFBF"/>
<path d="M632.092 21.6834V21.354H631.79V22.0126H632.092V21.6834Z" fill="#BFBFBF"/>
<path d="M648.448 23.3306H648.145V23.9892H648.448V23.3306Z" fill="#BFBFBF"/>
<path d="M644.206 22.3421H644.509V22.0127H643.903V22.3421H644.206Z" fill="#BFBFBF"/>
<path d="M651.171 23.3306H650.868V23.9892H651.171V23.3306Z" fill="#BFBFBF"/>
<path d="M635.121 21.3539H635.424V21.0244H634.818V21.3539H635.121Z" fill="#BFBFBF"/>
<path d="M652.99 23.3306H652.687V23.9892H652.99V23.3306Z" fill="#BFBFBF"/>
<path d="M652.078 23.3306H651.775V23.9892H652.078V23.3306Z" fill="#BFBFBF"/>
<path d="M649.355 23.3306H649.052V23.9892H649.355V23.3306Z" fill="#BFBFBF"/>
<path d="M633.304 21.3539H633.607V21.0244H633.001V21.3539H633.304Z" fill="#BFBFBF"/>
<path d="M639.966 22.0126H640.269V21.354H639.966V22.0126Z" fill="#BFBFBF"/>
<path d="M650.263 23.3306H649.96V23.9892H650.263V23.3306Z" fill="#BFBFBF"/>
<path d="M634.212 21.3539H634.515V21.0244H633.91V21.3539H634.212Z" fill="#BFBFBF"/>
<path d="M636.331 22.0126H636.634V21.354H636.331V22.0126Z" fill="#BFBFBF"/>
<path d="M634.817 23.3306H634.515V23.9892H634.817V23.3306Z" fill="#BFBFBF"/>
<path d="M632.396 24.978H632.093V25.3075H632.699V24.978H632.396Z" fill="#BFBFBF"/>
<path d="M632.092 24.6483V24.3188H631.79V24.9775H632.092V24.6483Z" fill="#BFBFBF"/>
<path d="M635.726 23.3306H635.423V23.9892H635.726V23.3306Z" fill="#BFBFBF"/>
<path d="M633.606 23.3299V23.0005H633.001V23.3299H633.606Z" fill="#BFBFBF"/>
<path d="M633.606 23.0004H633.909V22.3418H633.606V23.0004Z" fill="#BFBFBF"/>
<path d="M633.304 24.978H633.001V25.3075H633.606V24.978H633.304Z" fill="#BFBFBF"/>
<path d="M636.634 23.3306H636.331V23.9892H636.634V23.3306Z" fill="#BFBFBF"/>
<path d="M633.909 23.3306H633.606V23.9892H633.909V23.3306Z" fill="#BFBFBF"/>
<path d="M644.811 24.3188H644.508V24.9775H644.811V24.3188Z" fill="#BFBFBF"/>
<path d="M631.485 23.9893H631.183V24.3187H631.788V23.9893H631.485Z" fill="#BFBFBF"/>
<path d="M640.269 23.3306H639.966V23.9892H640.269V23.3306Z" fill="#BFBFBF"/>
<path d="M637.544 23.3306H637.241V23.9892H637.544V23.3306Z" fill="#BFBFBF"/>
<path d="M631.183 23.66V23.3306H630.88V23.9892H631.183V23.66Z" fill="#BFBFBF"/>
<path d="M641.178 23.3306H640.875V23.9892H641.178V23.3306Z" fill="#BFBFBF"/>
<path d="M631.183 22.6712V22.3418H630.88V23.0004H631.183V22.6712Z" fill="#BFBFBF"/>
<path d="M645.72 24.3188H645.417V24.9775H645.72V24.3188Z" fill="#BFBFBF"/>
<path d="M635.423 22.0126H635.726V21.354H635.423V22.0126Z" fill="#BFBFBF"/>
<path d="M639.359 23.3306H639.057V23.9892H639.359V23.3306Z" fill="#BFBFBF"/>
<path d="M638.453 23.3306H638.15V23.9892H638.453V23.3306Z" fill="#BFBFBF"/>
<path d="M637.241 22.0126H637.544V21.354H637.241V22.0126Z" fill="#BFBFBF"/>
<path d="M640.875 22.0126H641.178V21.354H640.875V22.0126Z" fill="#BFBFBF"/>
<path d="M651.474 22.3421H651.777V22.0127H651.171V22.3421H651.474Z" fill="#BFBFBF"/>
<path d="M643.298 21.3539H643.601V21.0244H642.996V21.3539H643.298Z" fill="#BFBFBF"/>
<path d="M650.567 22.3421H650.869V22.0127H650.264V22.3421H650.567Z" fill="#BFBFBF"/>
<path d="M644.508 22.0126H644.811V21.354H644.508V22.0126Z" fill="#BFBFBF"/>
<path d="M649.355 24.3188H649.052V24.9775H649.355V24.3188Z" fill="#BFBFBF"/>
<path d="M641.482 21.3539H641.784V21.0244H641.179V21.3539H641.482Z" fill="#BFBFBF"/>
<path d="M653.899 23.3306H653.596V23.9892H653.899V23.3306Z" fill="#BFBFBF"/>
<path d="M649.659 22.3421H649.962V22.0127H649.356V22.3421H649.659Z" fill="#BFBFBF"/>
<path d="M654.2 22.3421H654.503V22.0127H653.897V22.3421H654.2Z" fill="#BFBFBF"/>
<path d="M642.388 21.3539H642.691V21.0244H642.085V21.3539H642.388Z" fill="#BFBFBF"/>
<path d="M653.291 22.3421H653.593V22.0127H652.988V22.3421H653.291Z" fill="#BFBFBF"/>
<path d="M647.84 22.3421H648.143V22.0127H647.537V22.3421H647.84Z" fill="#BFBFBF"/>
<path d="M644.206 21.3539H644.509V21.0244H643.903V21.3539H644.206Z" fill="#BFBFBF"/>
<path d="M646.023 21.3539H646.325V21.0244H645.72V21.3539H646.023Z" fill="#BFBFBF"/>
<path d="M645.115 22.3421H645.418V22.0127H644.812V22.3421H645.115Z" fill="#BFBFBF"/>
<path d="M646.327 22.0126H646.629V21.354H646.327V22.0126Z" fill="#BFBFBF"/>
<path d="M646.93 22.3421H647.233V22.0127H646.627V22.3421H646.93Z" fill="#BFBFBF"/>
<path d="M646.023 22.3421H646.325V22.0127H645.72V22.3421H646.023Z" fill="#BFBFBF"/>
<path d="M648.749 22.3421H649.051V22.0127H648.446V22.3421H648.749Z" fill="#BFBFBF"/>
<path d="M645.115 21.3539H645.418V21.0244H644.812V21.3539H645.115Z" fill="#BFBFBF"/>
<path d="M645.417 22.0126H645.72V21.354H645.417V22.0126Z" fill="#BFBFBF"/>
<path d="M655.11 22.3421H655.413V22.0127H654.807V22.3421H655.11Z" fill="#BFBFBF"/>
<path d="M652.383 22.3421H652.686V22.0127H652.08V22.3421H652.383Z" fill="#BFBFBF"/>
<path d="M656.624 23.3306H656.321V23.9892H656.624V23.3306Z" fill="#BFBFBF"/>
<path d="M641.784 22.0126H642.087V21.354H641.784V22.0126Z" fill="#BFBFBF"/>
<path d="M657.531 23.3306H657.229V23.9892H657.531V23.3306Z" fill="#BFBFBF"/>
<path d="M658.439 23.3306H658.136V23.9892H658.439V23.3306Z" fill="#BFBFBF"/>
<path d="M637.846 21.3539H638.149V21.0244H637.543V21.3539H637.846Z" fill="#BFBFBF"/>
<path d="M654.806 23.3306H654.503V23.9892H654.806V23.3306Z" fill="#BFBFBF"/>
<path d="M659.044 23.66V23.9894H659.347V23.3306H659.044V23.66Z" fill="#BFBFBF"/>
<path d="M636.029 21.3539H636.332V21.0244H635.726V21.3539H636.029Z" fill="#BFBFBF"/>
<path d="M647.538 24.3188H647.235V24.9775H647.538V24.3188Z" fill="#BFBFBF"/>
<path d="M636.938 21.3539H637.241V21.0244H636.635V21.3539H636.938Z" fill="#BFBFBF"/>
<path d="M643.6 22.0126H643.903V21.354H643.6V22.0126Z" fill="#BFBFBF"/>
<path d="M655.715 23.3306H655.412V23.9892H655.715V23.3306Z" fill="#BFBFBF"/>
<path d="M656.927 22.3421H657.23V22.0127H656.624V22.3421H656.927Z" fill="#BFBFBF"/>
<path d="M657.834 22.3421H658.136V22.0127H657.531V22.3421H657.834Z" fill="#BFBFBF"/>
<path d="M648.448 24.3188H648.145V24.9775H648.448V24.3188Z" fill="#BFBFBF"/>
<path d="M640.572 21.3539H640.875V21.0244H640.269V21.3539H640.572Z" fill="#BFBFBF"/>
<path d="M638.754 21.3539H639.057V21.0244H638.452V21.3539H638.754Z" fill="#BFBFBF"/>
<path d="M656.019 22.3421H656.322V22.0127H655.716V22.3421H656.019Z" fill="#BFBFBF"/>
<path d="M642.691 22.0126H642.994V21.354H642.691V22.0126Z" fill="#BFBFBF"/>
<path d="M659.044 23.0004H659.347V22.3418H659.044V23.0004Z" fill="#BFBFBF"/>
<path d="M639.664 21.3539H639.967V21.0244H639.361V21.3539H639.664Z" fill="#BFBFBF"/>
<path d="M658.742 22.3421H659.045V22.0127H658.439V22.3421H658.742Z" fill="#BFBFBF"/>
<path d="M658.293 25.6359H633.156C632.555 25.6312 631.98 25.3693 631.555 24.9069C631.13 24.4446 630.889 23.8188 630.885 23.1649C630.889 22.511 631.13 21.8852 631.555 21.4228C631.98 20.9604 632.555 20.6985 633.156 20.6938L658.293 20.6938C658.894 20.6985 659.469 20.9604 659.894 21.4228C660.319 21.8852 660.56 22.511 660.564 23.1649C660.56 23.8188 660.319 24.4446 659.894 24.9069C659.469 25.3693 658.894 25.6312 658.293 25.6359ZM633.156 21.0234C632.634 21.0234 632.133 21.249 631.764 21.6506C631.395 22.0522 631.188 22.5969 631.188 23.1649C631.188 23.7328 631.395 24.2775 631.764 24.6791C632.133 25.0807 632.634 25.3063 633.156 25.3063H658.293C658.815 25.3063 659.316 25.0807 659.685 24.6791C660.054 24.2775 660.261 23.7328 660.261 23.1649C660.261 22.5969 660.054 22.0522 659.685 21.6506C659.316 21.249 658.815 21.0234 658.293 21.0234L633.156 21.0234Z" fill="#C9C9C9"/>
<path d="M749.302 658.567H540.639C538.421 658.573 536.208 658.33 534.035 657.843C529.858 656.905 525.888 655.092 522.346 652.507C517.079 648.66 512.963 643.219 510.504 636.857C509.655 634.707 509.016 632.465 508.596 630.169C508.149 627.806 507.926 625.399 507.931 622.985L507.931 49.0613C507.924 41.9722 509.864 35.0425 513.503 29.1617C517.076 23.4551 522.079 18.9841 527.919 16.2797C529.896 15.3561 531.956 14.6604 534.067 14.2041C536.229 13.7153 538.431 13.4724 540.639 13.4794L574.527 13.4794C575.185 13.4702 575.833 13.6521 576.405 14.0065C576.526 14.0724 576.647 14.1713 576.768 14.2372C577.188 14.5398 577.557 14.9184 577.859 15.3564C578.008 15.5862 578.139 15.8287 578.252 16.0814C578.433 16.574 578.525 17.0996 578.525 17.6299V22.8692C578.523 26.5341 579.858 30.0501 582.237 32.6447C584.617 35.2393 587.845 36.7003 591.214 36.7067L698.756 36.7067C702.125 36.7091 705.357 35.2565 707.742 32.6681C710.127 30.0797 711.47 26.5672 711.476 22.9023V18.1247C711.476 17.993 711.507 17.861 711.507 17.7293C711.509 17.0004 711.686 16.2848 712.022 15.6537C712.313 15.1395 712.694 14.6919 713.142 14.3358L713.687 13.9409C714.245 13.6121 714.87 13.4419 715.504 13.4464L749.302 13.4464C751.52 13.4411 753.732 13.6841 755.904 14.1713C760.082 15.1095 764.052 16.9218 767.594 19.5074C772.861 23.3547 776.977 28.7948 779.435 35.1569C780.284 37.3076 780.924 39.5492 781.343 41.845C781.791 44.2079 782.015 46.6146 782.01 49.0272V622.952C782.015 625.365 781.791 627.772 781.343 630.135C780.481 634.68 778.815 638.999 776.438 642.852C772.902 648.581 767.901 653.06 762.053 655.734C760.076 656.658 758.015 657.353 755.905 657.81C753.736 658.324 751.522 658.578 749.302 658.567Z" fill="#FCFCFC"/>
<path d="M592.879 265.5H793.999V322.069V330.037V381V389.793V439.191V449.5V500.5V510.102V559.5H18.499C14.7711 559.5 11.749 556.478 11.749 552.75V516.102C11.749 512.788 14.4353 510.102 17.749 510.102H793.999V500.5H652.555C648.828 500.5 645.805 497.478 645.805 493.75V455.5C645.805 452.186 648.492 449.5 651.805 449.5H793.999V439.191H513.889C510.161 439.191 507.139 436.169 507.139 432.441V396.543C507.139 392.815 510.161 389.793 513.889 389.793H793.999V381H782.754C779.026 381 776.004 377.978 776.004 374.25V336.787C776.004 333.059 779.026 330.037 782.754 330.037H793.999V322.069H583.751C580.023 322.069 577.001 319.047 577.001 315.319V272.25C577.001 268.522 580.023 265.5 583.751 265.5H592.879Z" fill="#D9D9D9" fill-opacity="0.74" stroke="#3C1B6A" stroke-width="0.75"/>
<path d="M868.863 402.258L793.917 330V381L868.863 444.5H918.645V402.258H868.863Z" fill="#D9D9D9"/>
<path d="M868.863 451.5L793.917 390V439.158L868.863 500.728H918.645V451.5H868.863Z" fill="#D9D9D9"/>
<path d="M868.863 508.5L793.917 449.5V500.5L868.863 559.5H918.645L915.999 508.5H868.863Z" fill="#D9D9D9"/>
<path d="M868.863 568L793.917 510V559.5L868.863 618H918.645V568H868.863Z" fill="#D9D9D9"/>
<path fill-rule="evenodd" clip-rule="evenodd" d="M793.917 265.5L868.863 342.5V395L793.917 322V265.5Z" fill="#D9D9D9"/>
<path d="M918.645 342.5H868.863V395H918.645V342.5Z" fill="#D9D9D9"/>
<path d="M793.917 265.5L868.863 342.5M793.917 265.5V559.5M793.917 265.5V322M868.863 342.5H918.645V395H868.863M868.863 342.5V395M868.863 395L793.917 322M793.917 322V330M793.917 330L868.863 402.258M793.917 330V381M868.863 402.258H918.645V444.5H868.863M868.863 402.258V444.5M868.863 444.5L793.917 381M793.917 381V390M793.917 390L868.863 451.5M793.917 390V439.158M868.863 451.5H918.645V500.728H868.863M868.863 451.5V500.728M868.863 500.728L793.917 439.158M793.917 439.158V449.5M793.917 449.5L868.863 508.5M793.917 449.5V500.5M868.863 508.5H915.999L918.645 559.5H868.863M868.863 508.5V559.5M868.863 559.5L793.917 500.5M793.917 500.5V510M793.917 510L868.863 568M793.917 510V559.5M868.863 568H918.645V618H868.863M868.863 568V618M868.863 618L793.917 559.5" stroke="#7B5DA5" stroke-width="0.75"/>
<path d="M753.8 345.65C753.544 345.692 753.33 345.82 753.16 346.034C753.01 346.226 752.936 346.45 752.936 346.706V365.874C752.936 366.13 753.01 366.364 753.16 366.578C753.33 366.77 753.544 366.887 753.8 366.93L754.632 367.09V367.346H748.392V367.09L749.224 366.93C749.48 366.887 749.682 366.77 749.832 366.578C750.002 366.364 750.088 366.13 750.088 365.874V346.674C749.597 346.994 749.053 347.218 748.456 347.346C747.88 347.452 747.336 347.527 746.824 347.57C746.226 347.612 745.618 347.602 745 347.538V346.802C745.533 346.78 746.077 346.706 746.632 346.578C747.122 346.471 747.666 346.311 748.264 346.098C748.861 345.863 749.458 345.554 750.056 345.17H754.6V345.426L753.768 345.586L753.8 345.65ZM762.569 348.018C762.569 348.828 762.356 349.522 761.929 350.098C761.524 350.652 760.884 350.93 760.009 350.93C759.113 350.93 758.463 350.652 758.057 350.098C757.673 349.522 757.481 348.828 757.481 348.018C757.481 347.207 757.673 346.524 758.057 345.97C758.441 345.394 759.092 345.106 760.009 345.106C760.479 345.106 760.873 345.18 761.193 345.33C761.535 345.479 761.801 345.692 761.993 345.97C762.207 346.226 762.356 346.535 762.441 346.898C762.527 347.239 762.569 347.612 762.569 348.018ZM757.993 348.018C757.993 348.7 758.153 349.276 758.473 349.746C758.793 350.215 759.295 350.45 759.977 350.45C760.66 350.45 761.161 350.215 761.481 349.746C761.801 349.276 761.961 348.7 761.961 348.018C761.961 347.335 761.812 346.759 761.513 346.29C761.236 345.82 760.735 345.586 760.009 345.586C759.305 345.586 758.804 345.82 758.505 346.29C758.207 346.759 758.057 347.335 758.057 348.018H757.993ZM765.321 361.426C765.791 361.426 766.185 361.5 766.505 361.65C766.847 361.799 767.113 362.012 767.305 362.29C767.519 362.546 767.668 362.855 767.753 363.218C767.839 363.559 767.881 363.932 767.881 364.338C767.881 365.148 767.668 365.842 767.241 366.418C766.836 366.972 766.196 367.25 765.321 367.25C764.425 367.25 763.775 366.972 763.369 366.418C762.985 365.842 762.793 365.148 762.793 364.338C762.793 363.527 762.985 362.844 763.369 362.29C763.753 361.714 764.404 361.426 765.321 361.426ZM765.257 366.77C765.94 366.77 766.441 366.535 766.761 366.066C767.081 365.596 767.241 365.02 767.241 364.338C767.241 363.655 767.092 363.079 766.793 362.61C766.516 362.14 766.015 361.906 765.289 361.906C764.585 361.906 764.084 362.14 763.785 362.61C763.487 363.079 763.337 363.655 763.337 364.338C763.337 365.02 763.497 365.596 763.817 366.066C764.137 366.535 764.639 366.77 765.321 366.77H765.257ZM766.153 345.106L759.465 367.218H758.953L765.641 345.106H766.153Z" fill="#7B5DA5"/>
<path d="M595.16 283.4C594.904 283.442 594.691 283.57 594.52 283.784C594.371 283.976 594.296 284.2 594.296 284.456V303.624C594.296 303.88 594.371 304.114 594.52 304.328C594.691 304.52 594.904 304.637 595.16 304.68L595.992 304.84V305.096H589.752V304.84L590.584 304.68C590.84 304.637 591.043 304.52 591.192 304.328C591.363 304.114 591.448 303.88 591.448 303.624V284.424C590.957 284.744 590.413 284.968 589.816 285.096C589.24 285.202 588.696 285.277 588.184 285.32C587.587 285.362 586.979 285.352 586.36 285.288V284.552C586.893 284.53 587.437 284.456 587.992 284.328C588.483 284.221 589.027 284.061 589.624 283.848C590.221 283.613 590.819 283.304 591.416 282.92H595.96V283.176L595.128 283.336L595.16 283.4ZM600.211 290.952C600.723 290.226 601.374 289.704 602.163 289.384C602.952 289.042 603.774 288.893 604.627 288.936C605.502 288.957 606.366 289.149 607.219 289.512C608.094 289.853 608.862 290.354 609.523 291.016C610.206 291.656 610.75 292.445 611.155 293.384C611.56 294.301 611.742 295.336 611.699 296.488C611.656 297.768 611.411 298.941 610.963 300.008C610.536 301.074 609.96 301.992 609.235 302.76C608.531 303.528 607.699 304.125 606.739 304.552C605.8 304.978 604.787 305.192 603.699 305.192C602.611 305.192 601.694 305.032 600.947 304.712C600.222 304.37 599.635 303.997 599.187 303.592C598.654 303.122 598.227 302.589 597.907 301.992L598.259 301.704C599.176 302.685 600.232 303.368 601.427 303.752C602.643 304.136 603.795 304.157 604.883 303.816C605.971 303.474 606.888 302.728 607.635 301.576C608.382 300.424 608.755 298.802 608.755 296.712C608.755 295.325 608.563 294.194 608.179 293.32C607.795 292.424 607.304 291.741 606.707 291.272C606.131 290.802 605.491 290.514 604.787 290.408C604.104 290.28 603.443 290.29 602.803 290.44C602.163 290.568 601.598 290.813 601.107 291.176C600.616 291.517 600.296 291.912 600.147 292.36H599.443V282.728H610.451L610.611 283.016C610.035 283.762 609.267 284.349 608.307 284.776C607.902 284.968 607.432 285.138 606.899 285.288C606.366 285.416 605.758 285.501 605.075 285.544C604.414 285.586 603.678 285.576 602.867 285.512C602.056 285.426 601.16 285.256 600.179 285V290.984L600.211 290.952ZM619.711 285.768C619.711 286.578 619.497 287.272 619.071 287.848C618.665 288.402 618.025 288.68 617.151 288.68C616.255 288.68 615.604 288.402 615.199 287.848C614.815 287.272 614.623 286.578 614.623 285.768C614.623 284.957 614.815 284.274 615.199 283.72C615.583 283.144 616.233 282.856 617.151 282.856C617.62 282.856 618.015 282.93 618.335 283.08C618.676 283.229 618.943 283.442 619.135 283.72C619.348 283.976 619.497 284.285 619.583 284.648C619.668 284.989 619.711 285.362 619.711 285.768ZM615.135 285.768C615.135 286.45 615.295 287.026 615.615 287.496C615.935 287.965 616.436 288.2 617.119 288.2C617.801 288.2 618.303 287.965 618.623 287.496C618.943 287.026 619.103 286.45 619.103 285.768C619.103 285.085 618.953 284.509 618.655 284.04C618.377 283.57 617.876 283.336 617.151 283.336C616.447 283.336 615.945 283.57 615.647 284.04C615.348 284.509 615.199 285.085 615.199 285.768H615.135ZM622.463 299.176C622.932 299.176 623.327 299.25 623.647 299.4C623.988 299.549 624.255 299.762 624.447 300.04C624.66 300.296 624.809 300.605 624.895 300.968C624.98 301.309 625.023 301.682 625.023 302.088C625.023 302.898 624.809 303.592 624.383 304.168C623.977 304.722 623.337 305 622.463 305C621.567 305 620.916 304.722 620.511 304.168C620.127 303.592 619.935 302.898 619.935 302.088C619.935 301.277 620.127 300.594 620.511 300.04C620.895 299.464 621.545 299.176 622.463 299.176ZM622.399 304.52C623.081 304.52 623.583 304.285 623.903 303.816C624.223 303.346 624.383 302.77 624.383 302.088C624.383 301.405 624.233 300.829 623.935 300.36C623.657 299.89 623.156 299.656 622.431 299.656C621.727 299.656 621.225 299.89 620.927 300.36C620.628 300.829 620.479 301.405 620.479 302.088C620.479 302.77 620.639 303.346 620.959 303.816C621.279 304.285 621.78 304.52 622.463 304.52H622.399ZM623.295 282.856L616.607 304.968H616.095L622.783 282.856H623.295Z" fill="#7B5DA5"/>
<path d="M534.035 422.624C533.395 423.392 532.808 424.138 532.275 424.864C531.763 425.589 531.261 426.229 530.771 426.784C530.28 427.338 529.789 427.786 529.299 428.128C528.829 428.469 528.307 428.64 527.731 428.64C527.368 428.64 526.963 428.501 526.515 428.224C526.067 427.946 525.597 427.648 525.107 427.328C524.616 426.986 524.104 426.677 523.571 426.4C523.037 426.101 522.504 425.93 521.971 425.888C521.437 425.845 520.893 425.984 520.339 426.304C519.805 426.624 519.283 427.232 518.771 428.128L518.227 427.84C518.781 426.624 519.4 425.525 520.083 424.544C520.765 423.541 521.459 422.602 522.163 421.728C522.867 420.832 523.56 419.978 524.243 419.168C524.947 418.357 525.576 417.525 526.131 416.672C526.685 415.818 527.144 414.922 527.507 413.984C527.891 413.045 528.125 412.021 528.211 410.912C528.317 409.653 528.168 408.682 527.763 408C527.357 407.317 526.835 406.858 526.195 406.624C525.576 406.368 524.904 406.304 524.179 406.432C523.475 406.56 522.877 406.794 522.387 407.136C522.344 407.178 522.259 407.242 522.131 407.328C522.024 407.392 521.885 407.498 521.715 407.648C521.352 407.904 521.032 408.384 520.755 409.088C520.477 409.792 520.477 410.57 520.755 411.424C520.968 412.064 521.288 412.501 521.715 412.736C522.163 412.949 522.621 413.024 523.091 412.96C523.56 412.874 524.008 412.693 524.435 412.416C524.861 412.117 525.171 411.776 525.363 411.392L525.811 411.68C525.597 412.341 525.277 412.928 524.851 413.44C524.488 413.866 524.008 414.261 523.411 414.624C522.835 414.986 522.099 415.168 521.203 415.168C520.307 415.168 519.56 414.88 518.963 414.304C518.387 413.706 518.056 412.97 517.971 412.096C517.907 411.221 518.163 410.282 518.739 409.28C519.315 408.277 520.328 407.349 521.779 406.496C522.76 405.92 523.741 405.546 524.723 405.376C525.725 405.184 526.653 405.162 527.507 405.312C528.381 405.44 529.149 405.728 529.811 406.176C530.472 406.624 530.952 407.189 531.251 407.872C531.549 408.554 531.624 409.354 531.475 410.272C531.347 411.168 530.931 412.138 530.227 413.184C529.373 414.464 528.552 415.562 527.763 416.48C526.973 417.376 526.205 418.229 525.459 419.04C524.712 419.829 523.965 420.64 523.219 421.472C522.472 422.304 521.704 423.296 520.915 424.448C521.683 423.957 522.461 423.765 523.251 423.872C524.04 423.957 524.787 424.16 525.491 424.48C526.216 424.8 526.888 425.13 527.507 425.472C528.147 425.813 528.701 425.984 529.171 425.984C529.683 425.984 530.184 425.792 530.675 425.408C531.187 425.024 531.656 424.586 532.083 424.096C532.531 423.584 532.989 422.944 533.459 422.176L534.035 422.624ZM545.737 405.44C547.081 405.44 548.35 405.706 549.545 406.24C550.739 406.752 551.774 407.498 552.649 408.48C553.545 409.44 554.249 410.624 554.761 412.032C555.273 413.44 555.529 415.04 555.529 416.832C555.529 418.688 555.273 420.33 554.761 421.76C554.249 423.168 553.545 424.352 552.649 425.312C551.774 426.272 550.739 426.997 549.545 427.488C548.35 427.978 547.081 428.224 545.737 428.224C544.393 428.224 543.123 427.978 541.929 427.488C540.734 426.976 539.689 426.24 538.793 425.28C537.918 424.298 537.225 423.104 536.713 421.696C536.201 420.266 535.945 418.645 535.945 416.832C535.945 415.061 536.201 413.472 536.713 412.064C537.225 410.656 537.918 409.461 538.793 408.48C539.689 407.498 540.734 406.752 541.929 406.24C543.123 405.706 544.393 405.44 545.737 405.44ZM545.737 427.648C546.675 427.648 547.561 427.413 548.393 426.944C549.225 426.474 549.95 425.792 550.569 424.896C551.187 423.978 551.678 422.848 552.041 421.504C552.403 420.16 552.585 418.613 552.585 416.864C552.585 415.178 552.403 413.674 552.041 412.352C551.678 411.008 551.187 409.877 550.569 408.96C549.95 408.021 549.225 407.306 548.393 406.816C547.561 406.325 546.675 406.08 545.737 406.08C544.798 406.08 543.913 406.325 543.081 406.816C542.249 407.306 541.523 408.021 540.905 408.96C540.286 409.877 539.795 411.008 539.433 412.352C539.07 413.674 538.889 415.178 538.889 416.864C538.889 418.592 539.07 420.128 539.433 421.472C539.795 422.794 540.286 423.914 540.905 424.832C541.523 425.749 542.249 426.453 543.081 426.944C543.913 427.413 544.798 427.648 545.737 427.648ZM563.616 408.768C563.616 409.578 563.403 410.272 562.976 410.848C562.571 411.402 561.931 411.68 561.056 411.68C560.16 411.68 559.509 411.402 559.104 410.848C558.72 410.272 558.528 409.578 558.528 408.768C558.528 407.957 558.72 407.274 559.104 406.72C559.488 406.144 560.139 405.856 561.056 405.856C561.525 405.856 561.92 405.93 562.24 406.08C562.581 406.229 562.848 406.442 563.04 406.72C563.253 406.976 563.403 407.285 563.488 407.648C563.573 407.989 563.616 408.362 563.616 408.768ZM559.04 408.768C559.04 409.45 559.2 410.026 559.52 410.496C559.84 410.965 560.341 411.2 561.024 411.2C561.707 411.2 562.208 410.965 562.528 410.496C562.848 410.026 563.008 409.45 563.008 408.768C563.008 408.085 562.859 407.509 562.56 407.04C562.283 406.57 561.781 406.336 561.056 406.336C560.352 406.336 559.851 406.57 559.552 407.04C559.253 407.509 559.104 408.085 559.104 408.768H559.04ZM566.368 422.176C566.837 422.176 567.232 422.25 567.552 422.4C567.893 422.549 568.16 422.762 568.352 423.04C568.565 423.296 568.715 423.605 568.8 423.968C568.885 424.309 568.928 424.682 568.928 425.088C568.928 425.898 568.715 426.592 568.288 427.168C567.883 427.722 567.243 428 566.368 428C565.472 428 564.821 427.722 564.416 427.168C564.032 426.592 563.84 425.898 563.84 425.088C563.84 424.277 564.032 423.594 564.416 423.04C564.8 422.464 565.451 422.176 566.368 422.176ZM566.304 427.52C566.987 427.52 567.488 427.285 567.808 426.816C568.128 426.346 568.288 425.77 568.288 425.088C568.288 424.405 568.139 423.829 567.84 423.36C567.563 422.89 567.061 422.656 566.336 422.656C565.632 422.656 565.131 422.89 564.832 423.36C564.533 423.829 564.384 424.405 564.384 425.088C564.384 425.77 564.544 426.346 564.864 426.816C565.184 427.285 565.685 427.52 566.368 427.52H566.304ZM567.2 405.856L560.512 427.968H560L566.688 405.856H567.2Z" fill="#7B5DA5"/>
<path d="M666.036 461.4C665.78 461.442 665.567 461.57 665.396 461.784C665.247 461.976 665.172 462.2 665.172 462.456V481.624C665.172 481.88 665.247 482.114 665.396 482.328C665.567 482.52 665.78 482.637 666.036 482.68L666.868 482.84V483.096H660.628V482.84L661.46 482.68C661.716 482.637 661.919 482.52 662.068 482.328C662.239 482.114 662.324 481.88 662.324 481.624V462.424C661.833 462.744 661.289 462.968 660.692 463.096C660.116 463.202 659.572 463.277 659.06 463.32C658.463 463.362 657.855 463.352 657.236 463.288V462.552C657.769 462.53 658.313 462.456 658.868 462.328C659.359 462.221 659.903 462.061 660.5 461.848C661.097 461.613 661.695 461.304 662.292 460.92H666.836V461.176L666.004 461.336L666.036 461.4ZM678.958 460.44C680.302 460.44 681.571 460.706 682.766 461.24C683.96 461.752 684.995 462.498 685.87 463.48C686.766 464.44 687.47 465.624 687.982 467.032C688.494 468.44 688.75 470.04 688.75 471.832C688.75 473.688 688.494 475.33 687.982 476.76C687.47 478.168 686.766 479.352 685.87 480.312C684.995 481.272 683.96 481.997 682.766 482.488C681.571 482.978 680.302 483.224 678.958 483.224C677.614 483.224 676.344 482.978 675.15 482.488C673.955 481.976 672.91 481.24 672.014 480.28C671.139 479.298 670.446 478.104 669.934 476.696C669.422 475.266 669.166 473.645 669.166 471.832C669.166 470.061 669.422 468.472 669.934 467.064C670.446 465.656 671.139 464.461 672.014 463.48C672.91 462.498 673.955 461.752 675.15 461.24C676.344 460.706 677.614 460.44 678.958 460.44ZM678.958 482.648C679.896 482.648 680.782 482.413 681.614 481.944C682.446 481.474 683.171 480.792 683.79 479.896C684.408 478.978 684.899 477.848 685.262 476.504C685.624 475.16 685.806 473.613 685.806 471.864C685.806 470.178 685.624 468.674 685.262 467.352C684.899 466.008 684.408 464.877 683.79 463.96C683.171 463.021 682.446 462.306 681.614 461.816C680.782 461.325 679.896 461.08 678.958 461.08C678.019 461.08 677.134 461.325 676.302 461.816C675.47 462.306 674.744 463.021 674.126 463.96C673.507 464.877 673.016 466.008 672.654 467.352C672.291 468.674 672.11 470.178 672.11 471.864C672.11 473.592 672.291 475.128 672.654 476.472C673.016 477.794 673.507 478.914 674.126 479.832C674.744 480.749 675.47 481.453 676.302 481.944C677.134 482.413 678.019 482.648 678.958 482.648ZM696.837 463.768C696.837 464.578 696.623 465.272 696.197 465.848C695.791 466.402 695.151 466.68 694.277 466.68C693.381 466.68 692.73 466.402 692.325 465.848C691.941 465.272 691.749 464.578 691.749 463.768C691.749 462.957 691.941 462.274 692.325 461.72C692.709 461.144 693.359 460.856 694.277 460.856C694.746 460.856 695.141 460.93 695.461 461.08C695.802 461.229 696.069 461.442 696.261 461.72C696.474 461.976 696.623 462.285 696.709 462.648C696.794 462.989 696.837 463.362 696.837 463.768ZM692.261 463.768C692.261 464.45 692.421 465.026 692.741 465.496C693.061 465.965 693.562 466.2 694.245 466.2C694.927 466.2 695.429 465.965 695.749 465.496C696.069 465.026 696.229 464.45 696.229 463.768C696.229 463.085 696.079 462.509 695.781 462.04C695.503 461.57 695.002 461.336 694.277 461.336C693.573 461.336 693.071 461.57 692.773 462.04C692.474 462.509 692.325 463.085 692.325 463.768H692.261ZM699.589 477.176C700.058 477.176 700.453 477.25 700.773 477.4C701.114 477.549 701.381 477.762 701.573 478.04C701.786 478.296 701.935 478.605 702.021 478.968C702.106 479.309 702.149 479.682 702.149 480.088C702.149 480.898 701.935 481.592 701.509 482.168C701.103 482.722 700.463 483 699.589 483C698.693 483 698.042 482.722 697.637 482.168C697.253 481.592 697.061 480.898 697.061 480.088C697.061 479.277 697.253 478.594 697.637 478.04C698.021 477.464 698.671 477.176 699.589 477.176ZM699.525 482.52C700.207 482.52 700.709 482.285 701.029 481.816C701.349 481.346 701.509 480.77 701.509 480.088C701.509 479.405 701.359 478.829 701.061 478.36C700.783 477.89 700.282 477.656 699.557 477.656C698.853 477.656 698.351 477.89 698.053 478.36C697.754 478.829 697.605 479.405 697.605 480.088C697.605 480.77 697.765 481.346 698.085 481.816C698.405 482.285 698.906 482.52 699.589 482.52H699.525ZM700.421 460.856L693.733 482.968H693.221L699.909 460.856H700.421Z" fill="#7B5DA5"/>
<path d="M26.2901 533.202C26.8021 532.476 27.4528 531.954 28.2421 531.634C29.0315 531.292 29.8528 531.143 30.7061 531.186C31.5808 531.207 32.4448 531.399 33.2981 531.762C34.1728 532.103 34.9408 532.604 35.6021 533.266C36.2848 533.906 36.8288 534.695 37.2341 535.634C37.6395 536.551 37.8208 537.586 37.7781 538.738C37.7355 540.018 37.4901 541.191 37.0421 542.258C36.6155 543.324 36.0395 544.242 35.3141 545.01C34.6101 545.778 33.7781 546.375 32.8181 546.802C31.8795 547.228 30.8661 547.442 29.7781 547.442C28.6901 547.442 27.7728 547.282 27.0261 546.962C26.3008 546.62 25.7141 546.247 25.2661 545.842C24.7328 545.372 24.3061 544.839 23.9861 544.242L24.3381 543.954C25.2555 544.935 26.3115 545.618 27.5061 546.002C28.7221 546.386 29.8741 546.407 30.9621 546.066C32.0501 545.724 32.9675 544.978 33.7141 543.826C34.4608 542.674 34.8341 541.052 34.8341 538.962C34.8341 537.575 34.6421 536.444 34.2581 535.57C33.8741 534.674 33.3835 533.991 32.7861 533.522C32.2101 533.052 31.5701 532.764 30.8661 532.658C30.1835 532.53 29.5221 532.54 28.8821 532.69C28.2421 532.818 27.6768 533.063 27.1861 533.426C26.6955 533.767 26.3755 534.162 26.2261 534.61H25.5221V524.978H36.5301L36.6901 525.266C36.1141 526.012 35.3461 526.599 34.3861 527.026C33.9808 527.218 33.5115 527.388 32.9781 527.538C32.4448 527.666 31.8368 527.751 31.1541 527.794C30.4928 527.836 29.7568 527.826 28.9461 527.762C28.1355 527.676 27.2395 527.506 26.2581 527.25V533.234L26.2901 533.202ZM54.8779 545.778C54.8779 546.034 54.9525 546.268 55.1019 546.482C55.2725 546.674 55.4859 546.791 55.7419 546.834L56.5739 546.994V547.25H50.3339V546.994L51.1659 546.834C51.4219 546.791 51.6245 546.674 51.7739 546.482C51.9445 546.268 52.0299 546.034 52.0299 545.778V539.474H41.2459V539.442L41.2139 539.474L40.2539 538.354C42.0672 536.967 43.8699 535.431 45.6619 533.746C46.4299 533.02 47.2405 532.242 48.0939 531.41C48.9472 530.556 49.8005 529.65 50.6539 528.69C51.5285 527.73 52.3925 526.727 53.2459 525.682C54.0992 524.636 54.9099 523.548 55.6779 522.418L56.9259 523.154L56.4459 523.666C56.2112 523.922 55.9979 524.178 55.8059 524.434C55.6139 524.69 55.4432 524.999 55.2939 525.362C55.1659 525.724 55.0592 526.162 54.9739 526.674C54.9099 527.164 54.8779 527.772 54.8779 528.498V545.81V545.778ZM52.0299 538.77V528.242L41.8859 538.77H52.0299ZM64.5086 528.018C64.5086 528.828 64.2953 529.522 63.8686 530.098C63.4633 530.652 62.8233 530.93 61.9486 530.93C61.0526 530.93 60.402 530.652 59.9966 530.098C59.6126 529.522 59.4206 528.828 59.4206 528.018C59.4206 527.207 59.6126 526.524 59.9966 525.97C60.3806 525.394 61.0313 525.106 61.9486 525.106C62.418 525.106 62.8126 525.18 63.1326 525.33C63.474 525.479 63.7406 525.692 63.9326 525.97C64.146 526.226 64.2953 526.535 64.3806 526.898C64.466 527.239 64.5086 527.612 64.5086 528.018ZM59.9326 528.018C59.9326 528.7 60.0926 529.276 60.4126 529.746C60.7326 530.215 61.234 530.45 61.9166 530.45C62.5993 530.45 63.1006 530.215 63.4206 529.746C63.7406 529.276 63.9006 528.7 63.9006 528.018C63.9006 527.335 63.7513 526.759 63.4526 526.29C63.1753 525.82 62.674 525.586 61.9486 525.586C61.2446 525.586 60.7433 525.82 60.4446 526.29C60.146 526.759 59.9966 527.335 59.9966 528.018H59.9326ZM67.2606 541.426C67.73 541.426 68.1246 541.5 68.4446 541.65C68.786 541.799 69.0526 542.012 69.2446 542.29C69.458 542.546 69.6073 542.855 69.6926 543.218C69.778 543.559 69.8206 543.932 69.8206 544.338C69.8206 545.148 69.6073 545.842 69.1806 546.418C68.7753 546.972 68.1353 547.25 67.2606 547.25C66.3646 547.25 65.714 546.972 65.3086 546.418C64.9246 545.842 64.7326 545.148 64.7326 544.338C64.7326 543.527 64.9246 542.844 65.3086 542.29C65.6926 541.714 66.3433 541.426 67.2606 541.426ZM67.1966 546.77C67.8793 546.77 68.3806 546.535 68.7006 546.066C69.0206 545.596 69.1806 545.02 69.1806 544.338C69.1806 543.655 69.0313 543.079 68.7326 542.61C68.4553 542.14 67.954 541.906 67.2286 541.906C66.5246 541.906 66.0233 542.14 65.7246 542.61C65.426 543.079 65.2766 543.655 65.2766 544.338C65.2766 545.02 65.4366 545.596 65.7566 546.066C66.0766 546.535 66.578 546.77 67.2606 546.77H67.1966ZM68.0926 525.106L61.4046 547.218H60.8926L67.5806 525.106H68.0926Z" fill="#7B5DA5"/>
<path d="M543.192 206.475V197.46H538.167L538.077 200.01C538.047 200.8 537.997 201.56 537.927 202.29C537.867 203.01 537.767 203.66 537.627 204.24C537.497 204.81 537.317 205.275 537.087 205.635C536.867 205.995 536.577 206.205 536.217 206.265L535.002 206.04C535.402 206.06 535.732 205.915 535.992 205.605C536.262 205.295 536.467 204.86 536.607 204.3C536.757 203.74 536.867 203.085 536.937 202.335C537.007 201.585 537.057 200.775 537.087 199.905L537.207 196.5H544.287V206.475H543.192ZM534.612 209.355L534.627 206.04H545.862V209.355H544.827V207H535.662L535.647 209.355H534.612ZM546.581 207L551.381 196.5H552.476L557.276 207H556.106L551.696 197.145H552.146L547.736 207H546.581ZM548.471 204.195L548.801 203.295H554.906L555.236 204.195H548.471ZM566.969 196.5H568.064V207H566.969V196.5ZM560.399 207H559.289V196.5H560.399V207ZM567.074 202.155H560.279V201.18H567.074V202.155ZM571.608 207V196.5H572.703V207H571.608ZM578.918 205.74L579.323 204.945C579.783 205.345 580.298 205.645 580.868 205.845C581.448 206.035 582.028 206.135 582.608 206.145C583.188 206.145 583.718 206.06 584.198 205.89C584.688 205.72 585.083 205.47 585.383 205.14C585.683 204.8 585.833 204.39 585.833 203.91C585.833 203.3 585.588 202.83 585.098 202.5C584.618 202.17 583.948 202.005 583.088 202.005H580.838V201.105H583.028C583.768 201.105 584.343 200.95 584.753 200.64C585.173 200.32 585.383 199.88 585.383 199.32C585.383 198.92 585.263 198.58 585.023 198.3C584.793 198.01 584.473 197.79 584.063 197.64C583.663 197.48 583.213 197.395 582.713 197.385C582.213 197.365 581.693 197.43 581.153 197.58C580.623 197.72 580.108 197.945 579.608 198.255L579.248 197.34C579.868 196.97 580.513 196.715 581.183 196.575C581.853 196.425 582.503 196.375 583.133 196.425C583.763 196.475 584.328 196.62 584.828 196.86C585.338 197.1 585.743 197.415 586.043 197.805C586.343 198.195 586.493 198.66 586.493 199.2C586.493 199.7 586.363 200.14 586.103 200.52C585.853 200.9 585.498 201.195 585.038 201.405C584.588 201.605 584.053 201.705 583.433 201.705L583.493 201.375C584.193 201.375 584.798 201.485 585.308 201.705C585.828 201.925 586.228 202.24 586.508 202.65C586.798 203.05 586.943 203.52 586.943 204.06C586.943 204.57 586.813 205.025 586.553 205.425C586.303 205.815 585.953 206.145 585.503 206.415C585.063 206.675 584.568 206.865 584.018 206.985C583.468 207.095 582.893 207.125 582.293 207.075C581.693 207.025 581.103 206.895 580.523 206.685C579.943 206.465 579.408 206.15 578.918 205.74ZM598.229 207.09C597.439 207.09 596.704 206.96 596.024 206.7C595.354 206.43 594.769 206.055 594.269 205.575C593.779 205.085 593.394 204.52 593.114 203.88C592.844 203.23 592.709 202.52 592.709 201.75C592.709 200.98 592.844 200.275 593.114 199.635C593.394 198.985 593.779 198.42 594.269 197.94C594.769 197.45 595.354 197.075 596.024 196.815C596.694 196.545 597.429 196.41 598.229 196.41C599.019 196.41 599.749 196.545 600.419 196.815C601.089 197.075 601.669 197.445 602.159 197.925C602.659 198.405 603.044 198.97 603.314 199.62C603.594 200.27 603.734 200.98 603.734 201.75C603.734 202.52 603.594 203.23 603.314 203.88C603.044 204.53 602.659 205.095 602.159 205.575C601.669 206.055 601.089 206.43 600.419 206.7C599.749 206.96 599.019 207.09 598.229 207.09ZM598.229 206.1C598.859 206.1 599.439 205.995 599.969 205.785C600.509 205.565 600.974 205.26 601.364 204.87C601.764 204.47 602.074 204.01 602.294 203.49C602.514 202.96 602.624 202.38 602.624 201.75C602.624 201.12 602.514 200.545 602.294 200.025C602.074 199.495 601.764 199.035 601.364 198.645C600.974 198.245 600.509 197.94 599.969 197.73C599.439 197.51 598.859 197.4 598.229 197.4C597.599 197.4 597.014 197.51 596.474 197.73C595.934 197.94 595.464 198.245 595.064 198.645C594.674 199.035 594.364 199.495 594.134 200.025C593.914 200.545 593.804 201.12 593.804 201.75C593.804 202.37 593.914 202.945 594.134 203.475C594.364 204.005 594.674 204.47 595.064 204.87C595.464 205.26 595.934 205.565 596.474 205.785C597.014 205.995 597.599 206.1 598.229 206.1ZM606.383 207V196.5H615.218V207H614.123V197.16L614.408 197.46H607.193L607.478 197.16V207H606.383ZM618.761 207V196.5H619.856V205.2L626.576 196.5H627.581V207H626.486V198.315L619.766 207H618.761ZM633.209 207V197.16L633.509 197.46H629.519V196.5H637.994V197.46H634.019L634.304 197.16V207H633.209ZM639.309 205.965C639.819 206.165 640.299 206.215 640.749 206.115C641.199 206.005 641.614 205.65 641.994 205.05L642.504 204.24L642.609 204.105L646.629 196.5H647.739L642.969 205.29C642.649 205.9 642.269 206.355 641.829 206.655C641.399 206.955 640.939 207.115 640.449 207.135C639.969 207.155 639.484 207.065 638.994 206.865L639.309 205.965ZM642.579 205.11L638.034 196.5H639.219L643.179 204.195L642.579 205.11ZM649.464 207V196.5H653.829C654.939 196.5 655.809 196.73 656.439 197.19C657.079 197.64 657.399 198.305 657.399 199.185C657.399 200.055 657.094 200.715 656.484 201.165C655.874 201.605 655.074 201.825 654.084 201.825L654.339 201.45C655.509 201.45 656.399 201.68 657.009 202.14C657.619 202.6 657.924 203.275 657.924 204.165C657.924 205.065 657.604 205.765 656.964 206.265C656.334 206.755 655.384 207 654.114 207H649.464ZM650.559 206.115H654.114C655.004 206.115 655.679 205.95 656.139 205.62C656.599 205.29 656.829 204.78 656.829 204.09C656.829 203.41 656.599 202.91 656.139 202.59C655.679 202.27 655.004 202.11 654.114 202.11H650.559V206.115ZM650.559 201.255H653.769C654.579 201.255 655.199 201.095 655.629 200.775C656.069 200.445 656.289 199.96 656.289 199.32C656.289 198.68 656.069 198.2 655.629 197.88C655.199 197.55 654.579 197.385 653.769 197.385H650.559V201.255ZM659.155 207L663.955 196.5H665.05L669.85 207H668.68L664.27 197.145H664.72L660.31 207H659.155ZM661.045 204.195L661.375 203.295H667.48L667.81 204.195H661.045ZM679.542 196.5H680.637V207H679.542V196.5ZM672.972 207H671.862V196.5H672.972V207ZM679.647 202.155H672.852V201.18H679.647V202.155ZM691.861 196.5H692.956V207H691.861V196.5ZM685.291 207H684.181V196.5H685.291V207ZM691.966 202.155H685.171V201.18H691.966V202.155ZM702.845 207V203.52L703.145 203.82H699.71C698.87 203.82 698.15 203.675 697.55 203.385C696.96 203.095 696.505 202.685 696.185 202.155C695.875 201.615 695.72 200.97 695.72 200.22C695.72 199.42 695.89 198.745 696.23 198.195C696.57 197.635 697.05 197.215 697.67 196.935C698.3 196.645 699.03 196.5 699.86 196.5H703.94V207H702.845ZM695.72 207L698.3 203.31H699.44L696.905 207H695.72ZM702.845 203.205V197.145L703.145 197.46H699.905C698.925 197.46 698.165 197.695 697.625 198.165C697.095 198.625 696.83 199.3 696.83 200.19C696.83 201.05 697.08 201.715 697.58 202.185C698.08 202.645 698.82 202.875 699.8 202.875H703.145L702.845 203.205ZM716.003 207.09C715.213 207.09 714.483 206.96 713.813 206.7C713.143 206.43 712.563 206.055 712.073 205.575C711.583 205.095 711.198 204.53 710.918 203.88C710.648 203.23 710.513 202.52 710.513 201.75C710.513 200.98 710.648 200.27 710.918 199.62C711.198 198.97 711.583 198.405 712.073 197.925C712.573 197.445 713.158 197.075 713.828 196.815C714.498 196.545 715.228 196.41 716.018 196.41C716.778 196.41 717.493 196.54 718.163 196.8C718.833 197.05 719.398 197.43 719.858 197.94L719.153 198.645C718.723 198.205 718.248 197.89 717.728 197.7C717.208 197.5 716.648 197.4 716.048 197.4C715.418 197.4 714.833 197.51 714.293 197.73C713.753 197.94 713.283 198.245 712.883 198.645C712.483 199.035 712.168 199.495 711.938 200.025C711.718 200.545 711.608 201.12 711.608 201.75C711.608 202.38 711.718 202.96 711.938 203.49C712.168 204.01 712.483 204.47 712.883 204.87C713.283 205.26 713.753 205.565 714.293 205.785C714.833 205.995 715.418 206.1 716.048 206.1C716.648 206.1 717.208 206 717.728 205.8C718.248 205.6 718.723 205.28 719.153 204.84L719.858 205.545C719.398 206.055 718.833 206.44 718.163 206.7C717.493 206.96 716.773 207.09 716.003 207.09ZM723.14 201.195H728.69V202.14H723.14V201.195ZM723.26 206.04H729.575V207H722.15V196.5H729.35V197.46H723.26V206.04ZM732.038 207V196.5H735.968C736.858 196.5 737.623 196.645 738.263 196.935C738.903 197.215 739.393 197.625 739.733 198.165C740.083 198.695 740.258 199.34 740.258 200.1C740.258 200.84 740.083 201.48 739.733 202.02C739.393 202.55 738.903 202.96 738.263 203.25C737.623 203.54 736.858 203.685 735.968 203.685H732.653L733.148 203.16V207H732.038ZM733.148 203.25L732.653 202.71H735.938C736.988 202.71 737.783 202.485 738.323 202.035C738.873 201.575 739.148 200.93 739.148 200.1C739.148 199.26 738.873 198.61 738.323 198.15C737.783 197.69 736.988 197.46 735.938 197.46H732.653L733.148 196.935V203.25ZM743.516 201.195H749.066V202.14H743.516V201.195ZM743.636 206.04H749.951V207H742.526V196.5H749.726V197.46H743.636V206.04ZM759.389 206.475V197.46H754.364L754.274 200.01C754.244 200.8 754.194 201.56 754.124 202.29C754.064 203.01 753.964 203.66 753.824 204.24C753.694 204.81 753.514 205.275 753.284 205.635C753.064 205.995 752.774 206.205 752.414 206.265L751.199 206.04C751.599 206.06 751.929 205.915 752.189 205.605C752.459 205.295 752.664 204.86 752.804 204.3C752.954 203.74 753.064 203.085 753.134 202.335C753.204 201.585 753.254 200.775 753.284 199.905L753.404 196.5H760.484V206.475H759.389ZM750.809 209.355L750.824 206.04H762.059V209.355H761.024V207H751.859L751.844 209.355H750.809ZM563.35 214.5H564.445V225H563.35V214.5ZM556.78 225H555.67V214.5H556.78V225ZM563.455 220.155H556.66V219.18H563.455V220.155ZM566.445 225L571.245 214.5H572.34L577.14 225H575.97L571.56 215.145H572.01L567.6 225H566.445ZM568.335 222.195L568.665 221.295H574.77L575.1 222.195H568.335ZM585.317 224.04L585.047 224.34V214.5H586.142V224.34L585.842 224.04H591.227L590.927 224.34V214.5H592.022V225H579.152V214.5H580.247V224.34L579.962 224.04H585.317ZM595.558 225V214.5H596.653V223.2L603.373 214.5H604.378V225H603.283V216.315L596.563 225H595.558ZM606.751 214.5H608.026L611.011 218.655L613.981 214.5H615.286L611.701 219.54L615.571 225H614.266L611.011 220.485L607.756 225H606.481L610.336 219.585L606.751 214.5ZM628.788 225L624.753 219.765L625.653 219.225L630.063 225H628.788ZM621.603 225V214.5H622.683V225H621.603ZM622.353 220.185V219.21H625.638V220.185H622.353ZM625.743 219.87L624.723 219.69L628.638 214.5H629.838L625.743 219.87ZM636.359 225.09C635.569 225.09 634.834 224.96 634.154 224.7C633.484 224.43 632.899 224.055 632.399 223.575C631.909 223.085 631.524 222.52 631.244 221.88C630.974 221.23 630.839 220.52 630.839 219.75C630.839 218.98 630.974 218.275 631.244 217.635C631.524 216.985 631.909 216.42 632.399 215.94C632.899 215.45 633.484 215.075 634.154 214.815C634.824 214.545 635.559 214.41 636.359 214.41C637.149 214.41 637.879 214.545 638.549 214.815C639.219 215.075 639.799 215.445 640.289 215.925C640.789 216.405 641.174 216.97 641.444 217.62C641.724 218.27 641.864 218.98 641.864 219.75C641.864 220.52 641.724 221.23 641.444 221.88C641.174 222.53 640.789 223.095 640.289 223.575C639.799 224.055 639.219 224.43 638.549 224.7C637.879 224.96 637.149 225.09 636.359 225.09ZM636.359 224.1C636.989 224.1 637.569 223.995 638.099 223.785C638.639 223.565 639.104 223.26 639.494 222.87C639.894 222.47 640.204 222.01 640.424 221.49C640.644 220.96 640.754 220.38 640.754 219.75C640.754 219.12 640.644 218.545 640.424 218.025C640.204 217.495 639.894 217.035 639.494 216.645C639.104 216.245 638.639 215.94 638.099 215.73C637.569 215.51 636.989 215.4 636.359 215.4C635.729 215.4 635.144 215.51 634.604 215.73C634.064 215.94 633.594 216.245 633.194 216.645C632.804 217.035 632.494 217.495 632.264 218.025C632.044 218.545 631.934 219.12 631.934 219.75C631.934 220.37 632.044 220.945 632.264 221.475C632.494 222.005 632.804 222.47 633.194 222.87C633.594 223.26 634.064 223.565 634.604 223.785C635.144 223.995 635.729 224.1 636.359 224.1ZM644.513 225V214.5H648.443C649.333 214.5 650.098 214.645 650.738 214.935C651.378 215.215 651.868 215.625 652.208 216.165C652.558 216.695 652.733 217.34 652.733 218.1C652.733 218.84 652.558 219.48 652.208 220.02C651.868 220.55 651.378 220.96 650.738 221.25C650.098 221.54 649.333 221.685 648.443 221.685H645.128L645.623 221.16V225H644.513ZM645.623 221.25L645.128 220.71H648.413C649.463 220.71 650.258 220.485 650.798 220.035C651.348 219.575 651.623 218.93 651.623 218.1C651.623 217.26 651.348 216.61 650.798 216.15C650.258 215.69 649.463 215.46 648.413 215.46H645.128L645.623 214.935V221.25ZM655.001 225V214.5H656.096V223.2L662.816 214.5H663.821V225H662.726V216.315L656.006 225H655.001ZM671.955 225.09C671.165 225.09 670.435 224.96 669.765 224.7C669.095 224.43 668.515 224.055 668.025 223.575C667.535 223.095 667.15 222.53 666.87 221.88C666.6 221.23 666.465 220.52 666.465 219.75C666.465 218.98 666.6 218.27 666.87 217.62C667.15 216.97 667.535 216.405 668.025 215.925C668.525 215.445 669.11 215.075 669.78 214.815C670.45 214.545 671.18 214.41 671.97 214.41C672.73 214.41 673.445 214.54 674.115 214.8C674.785 215.05 675.35 215.43 675.81 215.94L675.105 216.645C674.675 216.205 674.2 215.89 673.68 215.7C673.16 215.5 672.6 215.4 672 215.4C671.37 215.4 670.785 215.51 670.245 215.73C669.705 215.94 669.235 216.245 668.835 216.645C668.435 217.035 668.12 217.495 667.89 218.025C667.67 218.545 667.56 219.12 667.56 219.75C667.56 220.38 667.67 220.96 667.89 221.49C668.12 222.01 668.435 222.47 668.835 222.87C669.235 223.26 669.705 223.565 670.245 223.785C670.785 223.995 671.37 224.1 672 224.1C672.6 224.1 673.16 224 673.68 223.8C674.2 223.6 674.675 223.28 675.105 222.84L675.81 223.545C675.35 224.055 674.785 224.44 674.115 224.7C673.445 224.96 672.725 225.09 671.955 225.09ZM680.055 225V215.16L680.355 215.46H676.365V214.5H684.84V215.46H680.865L681.15 215.16V225H680.055ZM686.154 223.965C686.664 224.165 687.144 224.215 687.594 224.115C688.044 224.005 688.459 223.65 688.839 223.05L689.349 222.24L689.454 222.105L693.474 214.5H694.584L689.814 223.29C689.494 223.9 689.114 224.355 688.674 224.655C688.244 224.955 687.784 225.115 687.294 225.135C686.814 225.155 686.329 225.065 685.839 224.865L686.154 223.965ZM689.424 223.11L684.879 214.5H686.064L690.024 222.195L689.424 223.11ZM696.31 225V214.5H700.675C701.785 214.5 702.655 214.73 703.285 215.19C703.925 215.64 704.245 216.305 704.245 217.185C704.245 218.055 703.94 218.715 703.33 219.165C702.72 219.605 701.92 219.825 700.93 219.825L701.185 219.45C702.355 219.45 703.245 219.68 703.855 220.14C704.465 220.6 704.77 221.275 704.77 222.165C704.77 223.065 704.45 223.765 703.81 224.265C703.18 224.755 702.23 225 700.96 225H696.31ZM697.405 224.115H700.96C701.85 224.115 702.525 223.95 702.985 223.62C703.445 223.29 703.675 222.78 703.675 222.09C703.675 221.41 703.445 220.91 702.985 220.59C702.525 220.27 701.85 220.11 700.96 220.11H697.405V224.115ZM697.405 219.255H700.615C701.425 219.255 702.045 219.095 702.475 218.775C702.915 218.445 703.135 217.96 703.135 217.32C703.135 216.68 702.915 216.2 702.475 215.88C702.045 215.55 701.425 215.385 700.615 215.385H697.405V219.255ZM706 225L710.8 214.5H711.895L716.695 225H715.525L711.115 215.145H711.565L707.155 225H706ZM707.89 222.195L708.22 221.295H714.325L714.655 222.195H707.89ZM724.559 220.56C723.959 220.83 723.359 221.035 722.759 221.175C722.169 221.315 721.599 221.385 721.049 221.385C719.819 221.385 718.859 221.09 718.169 220.5C717.489 219.9 717.149 219.055 717.149 217.965V214.5H718.244V217.845C718.244 218.655 718.499 219.285 719.009 219.735C719.529 220.185 720.244 220.41 721.154 220.41C721.694 220.41 722.254 220.34 722.834 220.2C723.414 220.05 723.989 219.84 724.559 219.57V220.56ZM724.364 225V214.5H725.444V225H724.364ZM729.005 225V214.5H730.1V225H729.005ZM733.634 225V214.5H737.999C739.109 214.5 739.979 214.73 740.609 215.19C741.249 215.64 741.569 216.305 741.569 217.185C741.569 218.055 741.264 218.715 740.654 219.165C740.044 219.605 739.244 219.825 738.254 219.825L738.509 219.45C739.679 219.45 740.569 219.68 741.179 220.14C741.789 220.6 742.094 221.275 742.094 222.165C742.094 223.065 741.774 223.765 741.134 224.265C740.504 224.755 739.554 225 738.284 225H733.634ZM734.729 224.115H738.284C739.174 224.115 739.849 223.95 740.309 223.62C740.769 223.29 740.999 222.78 740.999 222.09C740.999 221.41 740.769 220.91 740.309 220.59C739.849 220.27 739.174 220.11 738.284 220.11H734.729V224.115ZM734.729 219.255H737.939C738.749 219.255 739.369 219.095 739.799 218.775C740.239 218.445 740.459 217.96 740.459 217.32C740.459 216.68 740.239 216.2 739.799 215.88C739.369 215.55 738.749 215.385 737.939 215.385H734.729V219.255Z" fill="#21172E"/>
<path d="M508 218C513.718 186.346 536.054 125.712 579.649 136.407C634.142 149.775 561.486 195.873 546.347 177.434C531.208 158.995 490.34 78.785 541.302 85.6997C592.263 92.6144 648.27 154.846 683.59 130.875C718.91 106.905 749.689 71.4094 736.065 64.9557C722.442 58.502 646.252 56.6582 669.967 85.6997C693.681 114.741 783.495 122.117 781.981 177.434" stroke="#D6AE1B"/>
</svg>
