<svg width="31" height="30" viewBox="0 0 31 30" fill="none" xmlns="http://www.w3.org/2000/svg">
<path d="M22.5925 0.174805H8.27742C6.22167 0.177173 4.25078 0.994868 2.79714 2.44851C1.3435 3.90215 0.525805 5.87303 0.523438 7.92879V22.2438C0.525805 24.2996 1.3435 26.2705 2.79714 27.7241C4.25078 29.1778 6.22167 29.9955 8.27742 29.9978H22.5925C24.6482 29.9955 26.6191 29.1778 28.0728 27.7241C29.5264 26.2705 30.3441 24.2996 30.3465 22.2438V7.92879C30.3441 5.87303 29.5264 3.90215 28.0728 2.44851C26.6191 0.994868 24.6482 0.177173 22.5925 0.174805ZM29.1535 22.2438C29.1516 23.9833 28.4597 25.651 27.2297 26.881C25.9997 28.111 24.332 28.8029 22.5925 28.8049H8.27742C6.53793 28.8029 4.87024 28.111 3.64023 26.881C2.41022 25.651 1.71833 23.9833 1.71636 22.2438V7.92879C1.71833 6.18929 2.41022 4.52161 3.64023 3.2916C4.87024 2.06159 6.53793 1.3697 8.27742 1.36773H22.5925C24.332 1.3697 25.9997 2.06159 27.2297 3.2916C28.4597 4.52161 29.1516 6.18929 29.1535 7.92879V22.2438Z" fill="#7B5DA5"/>
<path d="M24.5917 6.6543C25.2453 6.6543 25.7384 7.22764 25.4747 8.29405L22.2754 23.3729C22.0518 24.4451 21.404 24.7031 20.5095 24.2043L12.8784 18.5683C12.8488 18.5471 12.8247 18.5191 12.808 18.4867C12.7914 18.4543 12.7827 18.4184 12.7827 18.382C12.7827 18.3456 12.7914 18.3097 12.808 18.2773C12.8247 18.2449 12.8488 18.2169 12.8784 18.1957L21.6906 10.2377C22.092 9.88221 21.6046 9.71021 21.0771 10.0313L10.0174 17.0089C9.98384 17.0307 9.94576 17.0447 9.90602 17.0496C9.86629 17.0546 9.82594 17.0505 9.78805 17.0375L5.09238 15.5526C4.04889 15.2487 4.04889 14.532 5.32745 14.0217L24.1159 6.7747C24.2651 6.70379 24.4268 6.66288 24.5917 6.6543Z" stroke="#7B5DA5" stroke-width="0.887755" stroke-linecap="round" stroke-linejoin="round"/>
</svg>
